//Event file generated from Sappy .s format.
	#include "MPlayDef.event"

	#define	DistantYear_grp  voicegroup000
	#define	DistantYear_pri  0
	#define	DistantYear_rev  0
	#define	DistantYear_mvl  75
	#define	DistantYear_key  0
	#define	DistantYear_tbs  1
	#define	DistantYear_exg  0
	#define	DistantYear_cmp  1

	// .rodata
	//	DistantYear
	ALIGN 4

//**************** Track 1 (Midi-Chn.1) ****************//

DistantYear_1:
	BYTE	KEYSH   DistantYear_key+0
// 000   ----------------------------------------
	BYTE	TEMPO   120*DistantYear_tbs/2
	BYTE		VOICE   41
	BYTE		VOL     69*DistantYear_mvl/mxv
	BYTE		PAN     c_v-8
	BYTE		N24     Fn3   v108
	BYTE	W24
DistantYear_1_B1:
	BYTE		N36     As3   v108
	BYTE	W36
	BYTE		N12     An3   v104
	BYTE	W12
	BYTE		N24     As3 
	BYTE	W24
// 001   ----------------------------------------
	BYTE		        Dn4 
	BYTE	W24
	BYTE		N36     Cn4   v108
	BYTE	W36
	BYTE		N12     As3   v104
	BYTE	W12
	BYTE		N24     Cn4 
	BYTE	W24
// 002   ----------------------------------------
	BYTE		N12     Dn4 
	BYTE	W12
	BYTE		        Cn4 
	BYTE	W12
	BYTE		N36     As3   v108
	BYTE	W36
	BYTE		N12     As3   v104
	BYTE	W12
	BYTE		N24     Dn4 
	BYTE	W24
// 003   ----------------------------------------
	BYTE		        Fn4 
	BYTE	W24
	BYTE		N72     Gn4 
	BYTE	W72
// 004   ----------------------------------------
	BYTE		N24     Fn4 
	BYTE	W24
	BYTE		N48     Ds4   v108
	BYTE	W48
	BYTE		        As3 
	BYTE	W24
// 005   ----------------------------------------
	BYTE	W24
	BYTE		        Dn4 
	BYTE	W48
	BYTE		N24     As3 
	BYTE	W24
// 006   ----------------------------------------
	BYTE		        Fn3 
	BYTE	W24
	BYTE		N60     Cs4 
	BYTE	W60
	BYTE		N12     Gs3 
	BYTE	W12
// 007   ----------------------------------------
	BYTE		N21     Cs4 
	BYTE	W24
	BYTE		N90     Ds4 
	BYTE	W72
// 008   ----------------------------------------
	BYTE	W96
// 009   ----------------------------------------
	BYTE	W96
// 010   ----------------------------------------
	BYTE	W96
// 011   ----------------------------------------
	BYTE	W96
// 012   ----------------------------------------
	BYTE		N24     Fn4   v092
	BYTE	W24
	BYTE		N48     Ds4 
	BYTE	W48
	BYTE		N24     Fn4 
	BYTE	W24
// 013   ----------------------------------------
	BYTE		        Ds4 
	BYTE	W24
	BYTE		N48     Dn4 
	BYTE	W48
	BYTE		N24     Ds4 
	BYTE	W24
// 014   ----------------------------------------
	BYTE		        Dn4 
	BYTE	W24
	BYTE		N60     Cs4 
	BYTE	W60
	BYTE		N12     Gs3 
	BYTE	W12
// 015   ----------------------------------------
	BYTE		N24     Cs4 
	BYTE	W24
	BYTE		N48     Ds4 
	BYTE	W48
	BYTE		N24     Fn4 
	BYTE	W24
// 016   ----------------------------------------
	BYTE		        Ds4 
	BYTE	W24
	BYTE		N23     Cs4 
	BYTE	W24
	BYTE		        Gs3 
	BYTE	W24
	BYTE		        Gn3 
	BYTE	W24
// 017   ----------------------------------------
	BYTE		        Ds3 
	BYTE	W24
	BYTE		N44     Cn4   v088
	BYTE	W48
	BYTE		N23     Gs3   v092
	BYTE	W24
// 018   ----------------------------------------
	BYTE		        Ds4   v088
	BYTE	W24
	BYTE		N32     Cn4 
	BYTE	W36
	BYTE		N44     As3   v084
	BYTE	W36
// 019   ----------------------------------------
	BYTE	W96
// 020   ----------------------------------------
	BYTE	W24
	BYTE		N23     Cs3   v092
	BYTE	W24
	BYTE		        Gs3 
	BYTE	W24
	BYTE		        Gn3 
	BYTE	W24
// 021   ----------------------------------------
	BYTE		        Ds3 
	BYTE	W24
	BYTE		N44     Cn4 
	BYTE	W48
	BYTE		N23     Gs3 
	BYTE	W24
// 022   ----------------------------------------
	BYTE		N20     Ds4 
	BYTE	W24
	BYTE		N32   
	BYTE	W36
	BYTE		N05   
	BYTE	W06
	BYTE		        Fn4 
	BYTE	W06
	BYTE		N32     Ds4 
	BYTE	W24
// 023   ----------------------------------------
	BYTE	W12
	BYTE		N11     Cs4 
	BYTE	W12
	BYTE		N44     Cn4 
	BYTE	W48
	BYTE		N23     Gn3   v104
	BYTE	W24
// 024   ----------------------------------------
	BYTE		N05     En3 
	BYTE	W06
	BYTE		        Gn3 
	BYTE	W06
	BYTE		        Cn4 
	BYTE	W06
	BYTE		        En4 
	BYTE	W06
	BYTE		N04     Fn2   v092
	BYTE		N04     Cn3   v096
	BYTE		N06     Fn4   v108
	BYTE	W06
	BYTE		N04     Cn3   v048
	BYTE		N06     Fn4 
	BYTE	W06
	BYTE		N04     Fn2   v084
	BYTE		N04     Cn3   v092
	BYTE	W48
	BYTE		N12     Fn4   v084
	BYTE	W12
// 025   ----------------------------------------
	BYTE		        Ds4   v092
	BYTE	W12
	BYTE		        Dn4   v096
	BYTE	W12
	BYTE		N30     Cn4 
	BYTE	W36
	BYTE		N06     Cn4   v100
	BYTE	W06
	BYTE		        Dn4   v096
	BYTE	W06
	BYTE		N24     Ds4   v088
	BYTE	W24
// 026   ----------------------------------------
	BYTE		N12     Dn4   v092
	BYTE	W12
	BYTE		N06     Cn4   v088
	BYTE	W72
	BYTE		N12     Fn4   v084
	BYTE	W12
// 027   ----------------------------------------
	BYTE		        Ds4   v092
	BYTE	W12
	BYTE		        Dn4 
	BYTE	W12
	BYTE		N30     Cn4 
	BYTE	W36
	BYTE		N06     Cn4   v096
	BYTE	W06
	BYTE		        Dn4 
	BYTE	W06
	BYTE		N24     Ds4   v092
	BYTE	W24
// 028   ----------------------------------------
	BYTE		N12     Fn4 
	BYTE	W12
	BYTE		        Ds4   v084
	BYTE	W12
	BYTE		        Dn4   v076
	BYTE	W60
	BYTE		        As4   v060
	BYTE	W12
// 029   ----------------------------------------
	BYTE		        Gs4   v080
	BYTE	W12
	BYTE		        Gn4   v092
	BYTE	W12
	BYTE		N30     Fn4 
	BYTE	W36
	BYTE		N06   
	BYTE	W06
	BYTE		        Gn4 
	BYTE	W06
	BYTE		N24     Gs4 
	BYTE	W24
// 030   ----------------------------------------
	BYTE		N12     Gn4   v088
	BYTE	W12
	BYTE		        Fn4 
	BYTE	W84
// 031   ----------------------------------------
	BYTE	W96
// 032   ----------------------------------------
	BYTE	W24
	BYTE		PAN     c_v+0
	BYTE	W72
// 033   ----------------------------------------
	BYTE	W96
// 034   ----------------------------------------
	BYTE	W96
// 035   ----------------------------------------
	BYTE	W96
// 036   ----------------------------------------
	BYTE	W24
	BYTE		        c_v+0
	BYTE	W72
// 037   ----------------------------------------
	BYTE	W96
// 038   ----------------------------------------
	BYTE	W96
// 039   ----------------------------------------
	BYTE	W96
// 040   ----------------------------------------
	BYTE	W96
// 041   ----------------------------------------
	BYTE	W96
// 042   ----------------------------------------
	BYTE	W96
// 043   ----------------------------------------
	BYTE	W96
// 044   ----------------------------------------
	BYTE	W96
// 045   ----------------------------------------
	BYTE	W96
// 046   ----------------------------------------
	BYTE	W96
// 047   ----------------------------------------
	BYTE	W96
// 048   ----------------------------------------
	BYTE	W24
	BYTE		        c_v+0
	BYTE	W72
// 049   ----------------------------------------
	BYTE	W96
// 050   ----------------------------------------
	BYTE	W24
	BYTE		N48     An2   v112
	BYTE	W72
// 051   ----------------------------------------
	BYTE	W84
	BYTE		N05     An3   v100
	BYTE		N05     Cn4 
	BYTE	W12
// 052   ----------------------------------------
	BYTE		        Gn3 
	BYTE		N05     As3 
	BYTE	W12
	BYTE		        Fn3 
	BYTE		N05     An3 
	BYTE	W12
	BYTE	GoTo
	 POIN2	DistantYear_1_B1
DistantYear_1_B2:
	BYTE	FINE

//**************** Track 2 (Midi-Chn.2) ****************//

DistantYear_2:
	BYTE	KEYSH   DistantYear_key+0
// 000   ----------------------------------------
	BYTE		VOICE   34
	BYTE		PAN     c_v-8
	BYTE	W24
DistantYear_2_B1:
	BYTE		VOL     73*DistantYear_mvl/mxv
	BYTE		N06     Fn2   v127
	BYTE	W12
	BYTE		N16   
	BYTE	W24
	BYTE		N05   
	BYTE	W12
	BYTE		N05   
	BYTE	W12
	BYTE		N16   
	BYTE	W12
// 001   ----------------------------------------
DistantYear_2_001:
	BYTE	W12
	BYTE		N05     Fn2   v127
	BYTE	W12
	BYTE		N24   
	BYTE	W36
	BYTE		N04   
	BYTE	W12
	BYTE		N04   
	BYTE	W12
	BYTE		N10   
	BYTE	W12
	BYTE	PEND
// 002   ----------------------------------------
DistantYear_2_002:
	BYTE	W12
	BYTE		N04     Fn2   v127
	BYTE	W12
	BYTE		N23   
	BYTE	W36
	BYTE		N04   
	BYTE	W12
	BYTE		N24   
	BYTE	W24
	BYTE	PEND
// 003   ----------------------------------------
DistantYear_2_003:
	BYTE	W12
	BYTE		N05     Fn2   v127
	BYTE	W12
	BYTE		N24   
	BYTE	W36
	BYTE		N04   
	BYTE	W12
	BYTE		N04   
	BYTE	W12
	BYTE		N13   
	BYTE	W12
	BYTE	PEND
// 004   ----------------------------------------
DistantYear_2_004:
	BYTE	W12
	BYTE		N04     Fn2   v127
	BYTE	W12
	BYTE		N23     Ds2 
	BYTE	W36
	BYTE		N04   
	BYTE	W12
	BYTE		N15     Ds3 
	BYTE	W24
	BYTE	PEND
// 005   ----------------------------------------
DistantYear_2_005:
	BYTE		N16     Ds2   v127
	BYTE	W24
	BYTE		N30     Dn2 
	BYTE	W36
	BYTE		N05   
	BYTE	W12
	BYTE		N16     Dn3 
	BYTE	W24
	BYTE	PEND
// 006   ----------------------------------------
DistantYear_2_006:
	BYTE		N13     Dn2   v127
	BYTE	W24
	BYTE		N28     Cs2 
	BYTE	W36
	BYTE		N04   
	BYTE	W12
	BYTE		N05   
	BYTE	W12
	BYTE		N19     Gs1 
	BYTE	W12
	BYTE	PEND
// 007   ----------------------------------------
DistantYear_2_007:
	BYTE	W12
	BYTE		N05     Cs2   v127
	BYTE	W12
	BYTE		N19     Ds2 
	BYTE	W36
	BYTE		N04   
	BYTE	W12
	BYTE		N20     Ds3 
	BYTE	W24
	BYTE	PEND
// 008   ----------------------------------------
	BYTE		N05     Ds2 
	BYTE	W12
	BYTE		N06   
	BYTE	W12
	BYTE		        Fn2 
	BYTE	W12
	BYTE		N16   
	BYTE	W24
	BYTE		N05   
	BYTE	W12
	BYTE		N05   
	BYTE	W12
	BYTE		N16   
	BYTE	W12
// 009   ----------------------------------------
	BYTE	PATT
	 POIN2	DistantYear_2_001
// 010   ----------------------------------------
	BYTE	PATT
	 POIN2	DistantYear_2_002
// 011   ----------------------------------------
	BYTE	PATT
	 POIN2	DistantYear_2_003
// 012   ----------------------------------------
	BYTE	PATT
	 POIN2	DistantYear_2_004
// 013   ----------------------------------------
	BYTE	PATT
	 POIN2	DistantYear_2_005
// 014   ----------------------------------------
	BYTE	PATT
	 POIN2	DistantYear_2_006
// 015   ----------------------------------------
	BYTE	PATT
	 POIN2	DistantYear_2_007
// 016   ----------------------------------------
	BYTE		N05     Ds2   v127
	BYTE	W12
	BYTE		N06   
	BYTE	W12
	BYTE		        Cs2   v124
	BYTE	W12
	BYTE		N06   
	BYTE	W24
	BYTE		N06   
	BYTE	W12
	BYTE		N06   
	BYTE	W12
	BYTE		N06   
	BYTE	W12
// 017   ----------------------------------------
	BYTE	W12
	BYTE		N06   
	BYTE	W12
	BYTE		N06   
	BYTE	W12
	BYTE		N06   
	BYTE	W24
	BYTE		N06   
	BYTE	W12
	BYTE		N06   
	BYTE	W12
	BYTE		N06   
	BYTE	W12
// 018   ----------------------------------------
	BYTE	W12
	BYTE		N06   
	BYTE	W12
	BYTE		        Cn2 
	BYTE	W12
	BYTE		N06   
	BYTE	W24
	BYTE		N06   
	BYTE	W12
	BYTE		N06   
	BYTE	W12
	BYTE		N06   
	BYTE	W12
// 019   ----------------------------------------
	BYTE	W12
	BYTE		N06   
	BYTE	W12
	BYTE		N06   
	BYTE	W12
	BYTE		N06   
	BYTE	W24
	BYTE		N06   
	BYTE	W12
	BYTE		N06   
	BYTE	W12
	BYTE		N06   
	BYTE	W12
// 020   ----------------------------------------
	BYTE	W12
	BYTE		N06   
	BYTE	W12
	BYTE		        Cs2 
	BYTE	W12
	BYTE		N06   
	BYTE	W24
	BYTE		N06   
	BYTE	W12
	BYTE		N06   
	BYTE	W12
	BYTE		N06   
	BYTE	W12
// 021   ----------------------------------------
	BYTE	W12
	BYTE		N06   
	BYTE	W12
	BYTE		        As1 
	BYTE	W12
	BYTE		N06   
	BYTE	W24
	BYTE		N06   
	BYTE	W12
	BYTE		N06   
	BYTE	W12
	BYTE		N06   
	BYTE	W12
// 022   ----------------------------------------
	BYTE	W12
	BYTE		N06   
	BYTE	W12
	BYTE		        Ds2 
	BYTE	W12
	BYTE		N06   
	BYTE	W24
	BYTE		N06   
	BYTE	W12
	BYTE		N06   
	BYTE	W12
	BYTE		N06   
	BYTE	W12
// 023   ----------------------------------------
	BYTE	W12
	BYTE		N06   
	BYTE	W12
	BYTE		        Cn2 
	BYTE	W12
	BYTE		N06   
	BYTE	W24
	BYTE		N06   
	BYTE	W12
	BYTE		N06   
	BYTE	W12
	BYTE		N06   
	BYTE	W12
// 024   ----------------------------------------
	BYTE	W12
	BYTE		N06   
	BYTE	W12
	BYTE		VOL     82*DistantYear_mvl/mxv
	BYTE		N18     Fn2   v100
	BYTE	W72
// 025   ----------------------------------------
DistantYear_2_025:
	BYTE	W12
	BYTE		N09     Fn2   v100
	BYTE	W12
	BYTE		N18     Cn2 
	BYTE	W72
	BYTE	PEND
// 026   ----------------------------------------
	BYTE	W12
	BYTE		N12   
	BYTE	W12
	BYTE		N18     Fn2 
	BYTE	W72
// 027   ----------------------------------------
	BYTE	PATT
	 POIN2	DistantYear_2_025
// 028   ----------------------------------------
	BYTE	W12
	BYTE		N12     Cn2   v100
	BYTE	W12
	BYTE		N18     As1 
	BYTE	W72
// 029   ----------------------------------------
	BYTE	W12
	BYTE		N12   
	BYTE	W12
	BYTE		N18     Fn2 
	BYTE	W72
// 030   ----------------------------------------
	BYTE	W12
	BYTE		N12   
	BYTE	W12
	BYTE		VOL     82*DistantYear_mvl/mxv
	BYTE		N18     As1 
	BYTE	W72
// 031   ----------------------------------------
	BYTE	W12
	BYTE		N12   
	BYTE	W12
	BYTE		N18     Fn2   v108
	BYTE	W72
// 032   ----------------------------------------
	BYTE	W12
	BYTE		N12     Fn2   v112
	BYTE	W12
	BYTE		        Cs2   v120
	BYTE	W18
	BYTE		N06     Ds2 
	BYTE	W18
	BYTE		N36     Gs2 
	BYTE	W36
// 033   ----------------------------------------
	BYTE	W24
	BYTE		N12     Bn1 
	BYTE	W18
	BYTE		N06     Cs2 
	BYTE	W18
	BYTE		N36     Fs2 
	BYTE	W36
// 034   ----------------------------------------
	BYTE	W24
	BYTE		N12     An1 
	BYTE	W18
	BYTE		N06     Bn1 
	BYTE	W18
	BYTE		N36     En2 
	BYTE	W36
// 035   ----------------------------------------
	BYTE	W24
	BYTE		N18     Ds2 
	BYTE	W24
	BYTE		        Fn2 
	BYTE	W24
	BYTE		        Fs2 
	BYTE	W24
// 036   ----------------------------------------
	BYTE		        Fn2 
	BYTE	W24
	BYTE		N92     As1   v112
	BYTE	W72
// 037   ----------------------------------------
	BYTE	W24
	BYTE		        Gs1 
	BYTE	W72
// 038   ----------------------------------------
	BYTE	W24
	BYTE		        Gn1 
	BYTE	W72
// 039   ----------------------------------------
	BYTE	W24
	BYTE		        Gs1 
	BYTE	W72
// 040   ----------------------------------------
	BYTE	W24
	BYTE		        Ds2 
	BYTE	W72
// 041   ----------------------------------------
	BYTE	W24
	BYTE		        Dn2 
	BYTE	W72
// 042   ----------------------------------------
	BYTE	W24
	BYTE		        Cn2 
	BYTE	W72
// 043   ----------------------------------------
	BYTE	W24
	BYTE		        As1 
	BYTE	W72
// 044   ----------------------------------------
	BYTE	W24
	BYTE		N09     Ds2   v124
	BYTE	W36
	BYTE		        As2   v120
	BYTE	W12
	BYTE		        Ds2 
	BYTE	W24
// 045   ----------------------------------------
	BYTE	W12
	BYTE		N09   
	BYTE	W12
	BYTE		        Dn2   v124
	BYTE	W36
	BYTE		        An2   v120
	BYTE	W12
	BYTE		N21     Gn2   v108
	BYTE	W24
// 046   ----------------------------------------
	BYTE	W12
	BYTE		N09     Dn2   v124
	BYTE	W12
	BYTE		        Ds2 
	BYTE	W36
	BYTE		        As2   v120
	BYTE	W12
	BYTE		        Ds2 
	BYTE	W24
// 047   ----------------------------------------
	BYTE	W12
	BYTE		N09   
	BYTE	W12
	BYTE		        Dn2 
	BYTE	W36
	BYTE		N09   
	BYTE	W12
	BYTE		N21     Gn2   v108
	BYTE	W24
// 048   ----------------------------------------
	BYTE	W12
	BYTE		N09   
	BYTE	W12
	BYTE		N90     Ds2   v112
	BYTE	W72
// 049   ----------------------------------------
	BYTE	W24
	BYTE		N90   
	BYTE	W72
// 050   ----------------------------------------
	BYTE	W24
	BYTE		N72     Dn2 
	BYTE	W72
// 051   ----------------------------------------
	BYTE	W12
	BYTE		N06     Dn2   v120
	BYTE	W12
	BYTE		N30     Dn2   v116
	BYTE	W36
	BYTE		N06     Dn2   v120
	BYTE	W12
	BYTE		N06   
	BYTE	W12
	BYTE		N18     Dn2   v116
	BYTE	W12
// 052   ----------------------------------------
	BYTE	W12
	BYTE		N06     Ds2   v124
	BYTE	W12
	BYTE	GoTo
	 POIN2	DistantYear_2_B1
DistantYear_2_B2:
	BYTE		VOL     73*DistantYear_mvl/mxv
	BYTE	FINE

//**************** Track 3 (Midi-Chn.3) ****************//

DistantYear_3:
	BYTE	KEYSH   DistantYear_key+0
// 000   ----------------------------------------
	BYTE		VOICE   46
	BYTE	W24
DistantYear_3_B1:
	BYTE		VOL     79*DistantYear_mvl/mxv
	BYTE		PAN     c_v-24
	BYTE	W72
// 001   ----------------------------------------
	BYTE	W24
	BYTE		N12     Fn2   v120
	BYTE	W12
	BYTE		        Cn3 
	BYTE	W12
	BYTE		        Fn3 
	BYTE	W12
	BYTE		        An3 
	BYTE	W12
	BYTE		N06     Fn2 
	BYTE	W06
	BYTE		        Cn3 
	BYTE	W06
	BYTE		        Fn3 
	BYTE	W06
	BYTE		        As3 
	BYTE	W06
// 002   ----------------------------------------
	BYTE		        An3 
	BYTE	W06
	BYTE		        Cn4 
	BYTE	W06
	BYTE		        Fn4 
	BYTE	W06
	BYTE		        As4   v104
	BYTE	W78
// 003   ----------------------------------------
	BYTE	W24
	BYTE		N12     Fn2   v120
	BYTE	W12
	BYTE		        Cn3 
	BYTE	W12
	BYTE		        Fn3 
	BYTE	W12
	BYTE		        An3 
	BYTE	W12
	BYTE		N06     An4 
	BYTE	W06
	BYTE		        As4 
	BYTE	W06
	BYTE		        An4 
	BYTE	W06
	BYTE		        Fn4 
	BYTE	W06
// 004   ----------------------------------------
	BYTE		        Cn4 
	BYTE	W06
	BYTE		        An3 
	BYTE	W06
	BYTE		        Fn3 
	BYTE	W06
	BYTE		        Cn3 
	BYTE	W06
	BYTE		N12     Ds2 
	BYTE	W12
	BYTE		        As2 
	BYTE	W12
	BYTE		        Ds3 
	BYTE	W12
	BYTE		        Gn3 
	BYTE	W12
	BYTE		        As3 
	BYTE	W12
	BYTE		        Gn3 
	BYTE	W12
// 005   ----------------------------------------
	BYTE		        Ds3 
	BYTE	W12
	BYTE		        As2 
	BYTE	W12
	BYTE		        Dn2 
	BYTE	W12
	BYTE		        As2 
	BYTE	W12
	BYTE		        Dn3 
	BYTE	W12
	BYTE		        Fn3 
	BYTE	W12
	BYTE		        As3 
	BYTE	W12
	BYTE		        Fn3 
	BYTE	W12
// 006   ----------------------------------------
	BYTE		        Dn3 
	BYTE	W12
	BYTE		        As2 
	BYTE	W12
	BYTE		        Cs2 
	BYTE	W12
	BYTE		        Gs2 
	BYTE	W12
	BYTE		        Cs3 
	BYTE	W12
	BYTE		        Fn3 
	BYTE	W12
	BYTE		        Gs3 
	BYTE	W12
	BYTE		        Fn3 
	BYTE	W12
// 007   ----------------------------------------
	BYTE		        Cs3 
	BYTE	W12
	BYTE		        Gs2 
	BYTE	W12
	BYTE		        Ds2 
	BYTE	W12
	BYTE		        As2 
	BYTE	W12
	BYTE		        Ds3 
	BYTE	W12
	BYTE		        Gn3 
	BYTE	W12
	BYTE		N06     As4 
	BYTE	W06
	BYTE		        Ds5 
	BYTE	W06
	BYTE		        As4 
	BYTE	W06
	BYTE		        Gn4 
	BYTE	W06
// 008   ----------------------------------------
	BYTE		        Ds4 
	BYTE	W06
	BYTE		        As3 
	BYTE	W06
	BYTE		        Gn3 
	BYTE	W06
	BYTE		        Ds3 
	BYTE	W78
// 009   ----------------------------------------
	BYTE	W24
	BYTE		N12     Ds2 
	BYTE	W12
	BYTE		        An2 
	BYTE	W12
	BYTE		N09     Cn3 
	BYTE	W12
	BYTE		N12     Fn3 
	BYTE	W12
	BYTE		N06     Fn2 
	BYTE	W06
	BYTE		        Cn3 
	BYTE	W06
	BYTE		        Fn3 
	BYTE	W06
	BYTE		        An3 
	BYTE	W06
// 010   ----------------------------------------
	BYTE		        Fn3 
	BYTE	W06
	BYTE		        An3 
	BYTE	W06
	BYTE		        Cn4 
	BYTE	W06
	BYTE		        Fn4 
	BYTE	W78
// 011   ----------------------------------------
	BYTE	W24
	BYTE		N12     Ds2 
	BYTE	W12
	BYTE		        An2 
	BYTE	W12
	BYTE		        Cn3 
	BYTE	W12
	BYTE		        Fn3 
	BYTE	W12
	BYTE		N06     An4 
	BYTE	W06
	BYTE		        As4 
	BYTE	W06
	BYTE		        An4 
	BYTE	W06
	BYTE		        Fn4 
	BYTE	W06
// 012   ----------------------------------------
	BYTE		        Cn4 
	BYTE	W06
	BYTE		        An3 
	BYTE	W06
	BYTE		        Fn3 
	BYTE	W06
	BYTE		        Cn3 
	BYTE	W78
// 013   ----------------------------------------
	BYTE	W96
// 014   ----------------------------------------
	BYTE	W96
// 015   ----------------------------------------
	BYTE	W96
// 016   ----------------------------------------
	BYTE	W24
	BYTE		VOL     64*DistantYear_mvl/mxv
	BYTE	W48
	BYTE		N11     Gs4   v112
	BYTE	W12
	BYTE		        Fn4 
	BYTE	W12
// 017   ----------------------------------------
	BYTE		        Cn4 
	BYTE	W12
	BYTE		        Gs3 
	BYTE	W12
	BYTE		        Cs3 
	BYTE	W12
	BYTE		        Gs3 
	BYTE	W12
	BYTE		        Cn4 
	BYTE	W12
	BYTE		        Fn4 
	BYTE	W12
	BYTE		        Gs4 
	BYTE	W12
	BYTE		        Fn4 
	BYTE	W12
// 018   ----------------------------------------
	BYTE		        Cn4 
	BYTE	W12
	BYTE		        Gs3 
	BYTE	W12
	BYTE		        Cn3 
	BYTE	W12
	BYTE		        Gn3 
	BYTE	W12
	BYTE		        Cn4 
	BYTE	W12
	BYTE		        Ds4 
	BYTE	W12
	BYTE		        Gn4 
	BYTE	W12
	BYTE		        Ds4 
	BYTE	W12
// 019   ----------------------------------------
	BYTE		        Cn4 
	BYTE	W12
	BYTE		        Gn3 
	BYTE	W12
	BYTE		        Cn3 
	BYTE	W12
	BYTE		        Gn3 
	BYTE	W12
	BYTE		        Cn4 
	BYTE	W12
	BYTE		        Ds4 
	BYTE	W12
	BYTE		        Gn4 
	BYTE	W12
	BYTE		        Ds4 
	BYTE	W12
// 020   ----------------------------------------
	BYTE		        Cn4 
	BYTE	W12
	BYTE		        Gn3 
	BYTE	W12
	BYTE		        Cs3 
	BYTE	W12
	BYTE		        Gs3 
	BYTE	W12
	BYTE		        Cn4 
	BYTE	W12
	BYTE		        Fn4 
	BYTE	W12
	BYTE		        Gs4 
	BYTE	W12
	BYTE		        Fn4 
	BYTE	W12
// 021   ----------------------------------------
	BYTE		        Cn4 
	BYTE	W12
	BYTE		        Gs3 
	BYTE	W12
	BYTE		        As2 
	BYTE	W12
	BYTE		        Fn3 
	BYTE	W12
	BYTE		        As3 
	BYTE	W12
	BYTE		        Cs4 
	BYTE	W12
	BYTE		        Fn4 
	BYTE	W12
	BYTE		        Cs4 
	BYTE	W12
// 022   ----------------------------------------
	BYTE		        As3 
	BYTE	W12
	BYTE		        Fn3 
	BYTE	W12
	BYTE		        Ds3 
	BYTE	W12
	BYTE		        As3 
	BYTE	W12
	BYTE		        Ds4 
	BYTE	W12
	BYTE		        Gn4 
	BYTE	W12
	BYTE		        As4 
	BYTE	W12
	BYTE		        Gn4 
	BYTE	W12
// 023   ----------------------------------------
	BYTE		        Ds4 
	BYTE	W12
	BYTE		        As3 
	BYTE	W12
	BYTE		        Cn3 
	BYTE	W12
	BYTE		        Gn3 
	BYTE	W12
	BYTE		        Cn4 
	BYTE	W12
	BYTE		        En4 
	BYTE	W12
	BYTE		        Gn4 
	BYTE	W12
	BYTE		        En4 
	BYTE	W12
// 024   ----------------------------------------
	BYTE		        Cn4 
	BYTE	W12
	BYTE		        Gn3 
	BYTE	W84
// 025   ----------------------------------------
	BYTE	W96
// 026   ----------------------------------------
	BYTE	W96
// 027   ----------------------------------------
	BYTE	W96
// 028   ----------------------------------------
	BYTE	W96
// 029   ----------------------------------------
	BYTE	W96
// 030   ----------------------------------------
	BYTE	W23
	BYTE		VOL     64*DistantYear_mvl/mxv
	BYTE	W01
	BYTE		        77*DistantYear_mvl/mxv
	BYTE	W72
// 031   ----------------------------------------
	BYTE	W96
// 032   ----------------------------------------
	BYTE	W96
// 033   ----------------------------------------
	BYTE	W96
// 034   ----------------------------------------
	BYTE	W96
// 035   ----------------------------------------
	BYTE	W96
// 036   ----------------------------------------
	BYTE	W24
	BYTE		        58*DistantYear_mvl/mxv
	BYTE		PAN     c_v+21
	BYTE	W01
	BYTE		VOL     58*DistantYear_mvl/mxv
	BYTE	W01
	BYTE		        58*DistantYear_mvl/mxv
	BYTE	W01
	BYTE		        59*DistantYear_mvl/mxv
	BYTE	W01
	BYTE		        60*DistantYear_mvl/mxv
	BYTE	W01
	BYTE		        60*DistantYear_mvl/mxv
	BYTE	W01
	BYTE		        61*DistantYear_mvl/mxv
	BYTE	W01
	BYTE		        61*DistantYear_mvl/mxv
	BYTE	W01
	BYTE		        62*DistantYear_mvl/mxv
	BYTE	W01
	BYTE		        63*DistantYear_mvl/mxv
	BYTE	W01
	BYTE		        63*DistantYear_mvl/mxv
	BYTE	W01
	BYTE		        63*DistantYear_mvl/mxv
	BYTE	W01
	BYTE		        64*DistantYear_mvl/mxv
	BYTE	W01
	BYTE		        65*DistantYear_mvl/mxv
	BYTE	W01
	BYTE		        65*DistantYear_mvl/mxv
	BYTE	W01
	BYTE		        66*DistantYear_mvl/mxv
	BYTE	W01
	BYTE		        66*DistantYear_mvl/mxv
	BYTE	W01
	BYTE		        67*DistantYear_mvl/mxv
	BYTE	W01
	BYTE		        68*DistantYear_mvl/mxv
	BYTE	W01
	BYTE		        68*DistantYear_mvl/mxv
	BYTE	W01
	BYTE		        68*DistantYear_mvl/mxv
	BYTE	W01
	BYTE		        69*DistantYear_mvl/mxv
	BYTE	W01
	BYTE		        70*DistantYear_mvl/mxv
	BYTE	W01
	BYTE		        70*DistantYear_mvl/mxv
	BYTE	W01
	BYTE		        71*DistantYear_mvl/mxv
	BYTE	W01
	BYTE		        71*DistantYear_mvl/mxv
	BYTE	W01
	BYTE		        72*DistantYear_mvl/mxv
	BYTE	W01
	BYTE		        73*DistantYear_mvl/mxv
	BYTE	W01
	BYTE		        73*DistantYear_mvl/mxv
	BYTE	W01
	BYTE		        73*DistantYear_mvl/mxv
	BYTE	W01
	BYTE		        73*DistantYear_mvl/mxv
	BYTE	W01
	BYTE		        73*DistantYear_mvl/mxv
	BYTE	W01
	BYTE		        74*DistantYear_mvl/mxv
	BYTE	W01
	BYTE		        75*DistantYear_mvl/mxv
	BYTE	W01
	BYTE		        75*DistantYear_mvl/mxv
	BYTE	W01
	BYTE		        75*DistantYear_mvl/mxv
	BYTE	W01
	BYTE		        76*DistantYear_mvl/mxv
	BYTE	W01
	BYTE		        77*DistantYear_mvl/mxv
	BYTE	W01
	BYTE		        77*DistantYear_mvl/mxv
	BYTE	W01
	BYTE		        78*DistantYear_mvl/mxv
	BYTE	W01
	BYTE		        78*DistantYear_mvl/mxv
	BYTE	W01
	BYTE		        78*DistantYear_mvl/mxv
	BYTE	W01
	BYTE		        79*DistantYear_mvl/mxv
	BYTE	W30
// 037   ----------------------------------------
	BYTE	W56
	BYTE		        79*DistantYear_mvl/mxv
	BYTE	W02
	BYTE		        78*DistantYear_mvl/mxv
	BYTE	W01
	BYTE		        78*DistantYear_mvl/mxv
	BYTE	W01
	BYTE		        78*DistantYear_mvl/mxv
	BYTE	W01
	BYTE		        78*DistantYear_mvl/mxv
	BYTE	W01
	BYTE		        77*DistantYear_mvl/mxv
	BYTE	W01
	BYTE		        77*DistantYear_mvl/mxv
	BYTE	W01
	BYTE		        77*DistantYear_mvl/mxv
	BYTE	W01
	BYTE		        76*DistantYear_mvl/mxv
	BYTE	W01
	BYTE		        76*DistantYear_mvl/mxv
	BYTE	W01
	BYTE		        75*DistantYear_mvl/mxv
	BYTE	W01
	BYTE		        75*DistantYear_mvl/mxv
	BYTE	W01
	BYTE		        75*DistantYear_mvl/mxv
	BYTE	W01
	BYTE		        74*DistantYear_mvl/mxv
	BYTE	W01
	BYTE		        74*DistantYear_mvl/mxv
	BYTE	W01
	BYTE		        73*DistantYear_mvl/mxv
	BYTE	W01
	BYTE		        73*DistantYear_mvl/mxv
	BYTE	W01
	BYTE		        73*DistantYear_mvl/mxv
	BYTE	W01
	BYTE		        73*DistantYear_mvl/mxv
	BYTE	W01
	BYTE		        73*DistantYear_mvl/mxv
	BYTE	W01
	BYTE		        72*DistantYear_mvl/mxv
	BYTE	W01
	BYTE		        72*DistantYear_mvl/mxv
	BYTE	W01
	BYTE		        71*DistantYear_mvl/mxv
	BYTE	W02
	BYTE		        71*DistantYear_mvl/mxv
	BYTE	W01
	BYTE		        71*DistantYear_mvl/mxv
	BYTE	W01
	BYTE		        70*DistantYear_mvl/mxv
	BYTE	W01
	BYTE		        70*DistantYear_mvl/mxv
	BYTE	W01
	BYTE		        69*DistantYear_mvl/mxv
	BYTE	W01
	BYTE		        69*DistantYear_mvl/mxv
	BYTE	W01
	BYTE		        68*DistantYear_mvl/mxv
	BYTE	W01
	BYTE		        68*DistantYear_mvl/mxv
	BYTE	W01
	BYTE		        68*DistantYear_mvl/mxv
	BYTE	W01
	BYTE		        67*DistantYear_mvl/mxv
	BYTE	W01
	BYTE		        67*DistantYear_mvl/mxv
	BYTE	W01
	BYTE		        66*DistantYear_mvl/mxv
	BYTE	W01
	BYTE		        66*DistantYear_mvl/mxv
	BYTE	W01
	BYTE		        66*DistantYear_mvl/mxv
	BYTE	W01
	BYTE		        65*DistantYear_mvl/mxv
	BYTE	W01
// 038   ----------------------------------------
	BYTE		        65*DistantYear_mvl/mxv
	BYTE	W01
	BYTE		        64*DistantYear_mvl/mxv
	BYTE	W01
	BYTE		        63*DistantYear_mvl/mxv
	BYTE	W01
	BYTE		        64*DistantYear_mvl/mxv
	BYTE	W01
	BYTE		        64*DistantYear_mvl/mxv
	BYTE	W01
	BYTE		        65*DistantYear_mvl/mxv
	BYTE	W01
	BYTE		        66*DistantYear_mvl/mxv
	BYTE	W01
	BYTE		        66*DistantYear_mvl/mxv
	BYTE	W01
	BYTE		        67*DistantYear_mvl/mxv
	BYTE	W01
	BYTE		        68*DistantYear_mvl/mxv
	BYTE	W01
	BYTE		        68*DistantYear_mvl/mxv
	BYTE	W01
	BYTE		        69*DistantYear_mvl/mxv
	BYTE	W01
	BYTE		        70*DistantYear_mvl/mxv
	BYTE	W01
	BYTE		        71*DistantYear_mvl/mxv
	BYTE	W01
	BYTE		        71*DistantYear_mvl/mxv
	BYTE	W01
	BYTE		        72*DistantYear_mvl/mxv
	BYTE	W01
	BYTE		        72*DistantYear_mvl/mxv
	BYTE	W01
	BYTE		        73*DistantYear_mvl/mxv
	BYTE	W01
	BYTE		        73*DistantYear_mvl/mxv
	BYTE	W01
	BYTE		        73*DistantYear_mvl/mxv
	BYTE	W01
	BYTE		        74*DistantYear_mvl/mxv
	BYTE	W01
	BYTE		        75*DistantYear_mvl/mxv
	BYTE	W01
	BYTE		        75*DistantYear_mvl/mxv
	BYTE	W01
	BYTE		        76*DistantYear_mvl/mxv
	BYTE	W01
	BYTE		        77*DistantYear_mvl/mxv
	BYTE	W01
	BYTE		        77*DistantYear_mvl/mxv
	BYTE	W01
	BYTE		        78*DistantYear_mvl/mxv
	BYTE	W01
	BYTE		        78*DistantYear_mvl/mxv
	BYTE	W01
	BYTE		        79*DistantYear_mvl/mxv
	BYTE	W68
// 039   ----------------------------------------
	BYTE	W32
	BYTE	W02
	BYTE		        79*DistantYear_mvl/mxv
	BYTE	W02
	BYTE		        78*DistantYear_mvl/mxv
	BYTE	W01
	BYTE		        78*DistantYear_mvl/mxv
	BYTE	W01
	BYTE		        78*DistantYear_mvl/mxv
	BYTE	W01
	BYTE		        78*DistantYear_mvl/mxv
	BYTE	W01
	BYTE		        77*DistantYear_mvl/mxv
	BYTE	W01
	BYTE		        77*DistantYear_mvl/mxv
	BYTE	W01
	BYTE		        76*DistantYear_mvl/mxv
	BYTE	W01
	BYTE		        76*DistantYear_mvl/mxv
	BYTE	W01
	BYTE		        75*DistantYear_mvl/mxv
	BYTE	W01
	BYTE		        75*DistantYear_mvl/mxv
	BYTE	W01
	BYTE		        75*DistantYear_mvl/mxv
	BYTE	W01
	BYTE		        74*DistantYear_mvl/mxv
	BYTE	W01
	BYTE		        74*DistantYear_mvl/mxv
	BYTE	W01
	BYTE		        73*DistantYear_mvl/mxv
	BYTE	W01
	BYTE		        73*DistantYear_mvl/mxv
	BYTE	W01
	BYTE		        73*DistantYear_mvl/mxv
	BYTE	W01
	BYTE		        73*DistantYear_mvl/mxv
	BYTE	W01
	BYTE		        72*DistantYear_mvl/mxv
	BYTE	W01
	BYTE		        72*DistantYear_mvl/mxv
	BYTE	W01
	BYTE		        71*DistantYear_mvl/mxv
	BYTE	W01
	BYTE		        71*DistantYear_mvl/mxv
	BYTE	W01
	BYTE		        71*DistantYear_mvl/mxv
	BYTE	W01
	BYTE		        70*DistantYear_mvl/mxv
	BYTE	W01
	BYTE		        70*DistantYear_mvl/mxv
	BYTE	W01
	BYTE		        69*DistantYear_mvl/mxv
	BYTE	W01
	BYTE		        69*DistantYear_mvl/mxv
	BYTE	W01
	BYTE		        68*DistantYear_mvl/mxv
	BYTE	W01
	BYTE		        68*DistantYear_mvl/mxv
	BYTE	W01
	BYTE		        68*DistantYear_mvl/mxv
	BYTE	W01
	BYTE		        67*DistantYear_mvl/mxv
	BYTE	W01
	BYTE		        66*DistantYear_mvl/mxv
	BYTE	W01
	BYTE		        66*DistantYear_mvl/mxv
	BYTE	W01
	BYTE		        66*DistantYear_mvl/mxv
	BYTE	W01
	BYTE		        65*DistantYear_mvl/mxv
	BYTE	W01
	BYTE		        64*DistantYear_mvl/mxv
	BYTE	W02
	BYTE		        65*DistantYear_mvl/mxv
	BYTE	W01
	BYTE		        65*DistantYear_mvl/mxv
	BYTE	W01
	BYTE		        66*DistantYear_mvl/mxv
	BYTE	W01
	BYTE		        66*DistantYear_mvl/mxv
	BYTE	W01
	BYTE		        66*DistantYear_mvl/mxv
	BYTE	W01
	BYTE		        67*DistantYear_mvl/mxv
	BYTE	W01
	BYTE		        67*DistantYear_mvl/mxv
	BYTE	W01
	BYTE		        68*DistantYear_mvl/mxv
	BYTE	W01
	BYTE		        68*DistantYear_mvl/mxv
	BYTE	W01
	BYTE		        68*DistantYear_mvl/mxv
	BYTE	W01
	BYTE		        69*DistantYear_mvl/mxv
	BYTE	W01
	BYTE		        69*DistantYear_mvl/mxv
	BYTE	W01
	BYTE		        70*DistantYear_mvl/mxv
	BYTE	W01
	BYTE		        70*DistantYear_mvl/mxv
	BYTE	W01
	BYTE		        71*DistantYear_mvl/mxv
	BYTE	W01
	BYTE		        71*DistantYear_mvl/mxv
	BYTE	W01
	BYTE		        71*DistantYear_mvl/mxv
	BYTE	W01
	BYTE		        72*DistantYear_mvl/mxv
	BYTE	W01
	BYTE		        72*DistantYear_mvl/mxv
	BYTE	W01
	BYTE		        73*DistantYear_mvl/mxv
	BYTE	W01
	BYTE		        73*DistantYear_mvl/mxv
	BYTE	W01
	BYTE		        73*DistantYear_mvl/mxv
	BYTE	W01
	BYTE		        73*DistantYear_mvl/mxv
	BYTE	W01
	BYTE		        73*DistantYear_mvl/mxv
	BYTE	W01
// 040   ----------------------------------------
	BYTE		        74*DistantYear_mvl/mxv
	BYTE	W01
	BYTE		        74*DistantYear_mvl/mxv
	BYTE	W01
	BYTE		        75*DistantYear_mvl/mxv
	BYTE	W01
	BYTE		        75*DistantYear_mvl/mxv
	BYTE	W01
	BYTE		        75*DistantYear_mvl/mxv
	BYTE	W01
	BYTE		        76*DistantYear_mvl/mxv
	BYTE	W01
	BYTE		        77*DistantYear_mvl/mxv
	BYTE	W01
	BYTE		        77*DistantYear_mvl/mxv
	BYTE	W01
	BYTE		        77*DistantYear_mvl/mxv
	BYTE	W01
	BYTE		        78*DistantYear_mvl/mxv
	BYTE	W01
	BYTE		        78*DistantYear_mvl/mxv
	BYTE	W01
	BYTE		        78*DistantYear_mvl/mxv
	BYTE	W01
	BYTE		        79*DistantYear_mvl/mxv
	BYTE	W84
// 041   ----------------------------------------
	BYTE	W56
	BYTE	W01
	BYTE		        78*DistantYear_mvl/mxv
	BYTE	W02
	BYTE		        78*DistantYear_mvl/mxv
	BYTE	W01
	BYTE		        78*DistantYear_mvl/mxv
	BYTE	W01
	BYTE		        78*DistantYear_mvl/mxv
	BYTE	W01
	BYTE		        77*DistantYear_mvl/mxv
	BYTE	W01
	BYTE		        77*DistantYear_mvl/mxv
	BYTE	W01
	BYTE		        77*DistantYear_mvl/mxv
	BYTE	W01
	BYTE		        76*DistantYear_mvl/mxv
	BYTE	W01
	BYTE		        76*DistantYear_mvl/mxv
	BYTE	W01
	BYTE		        75*DistantYear_mvl/mxv
	BYTE	W01
	BYTE		        75*DistantYear_mvl/mxv
	BYTE	W01
	BYTE		        75*DistantYear_mvl/mxv
	BYTE	W01
	BYTE		        74*DistantYear_mvl/mxv
	BYTE	W01
	BYTE		        74*DistantYear_mvl/mxv
	BYTE	W01
	BYTE		        73*DistantYear_mvl/mxv
	BYTE	W01
	BYTE		        73*DistantYear_mvl/mxv
	BYTE	W01
	BYTE		        73*DistantYear_mvl/mxv
	BYTE	W01
	BYTE		        73*DistantYear_mvl/mxv
	BYTE	W01
	BYTE		        73*DistantYear_mvl/mxv
	BYTE	W01
	BYTE		        72*DistantYear_mvl/mxv
	BYTE	W01
	BYTE		        72*DistantYear_mvl/mxv
	BYTE	W01
	BYTE		        71*DistantYear_mvl/mxv
	BYTE	W01
	BYTE		        71*DistantYear_mvl/mxv
	BYTE	W01
	BYTE		        71*DistantYear_mvl/mxv
	BYTE	W01
	BYTE		        70*DistantYear_mvl/mxv
	BYTE	W01
	BYTE		        70*DistantYear_mvl/mxv
	BYTE	W01
	BYTE		        69*DistantYear_mvl/mxv
	BYTE	W01
	BYTE		        69*DistantYear_mvl/mxv
	BYTE	W01
	BYTE		        68*DistantYear_mvl/mxv
	BYTE	W01
	BYTE		        68*DistantYear_mvl/mxv
	BYTE	W01
	BYTE		        68*DistantYear_mvl/mxv
	BYTE	W01
	BYTE		        67*DistantYear_mvl/mxv
	BYTE	W01
	BYTE		        67*DistantYear_mvl/mxv
	BYTE	W01
	BYTE		        66*DistantYear_mvl/mxv
	BYTE	W01
	BYTE		        66*DistantYear_mvl/mxv
	BYTE	W01
	BYTE		        66*DistantYear_mvl/mxv
	BYTE	W01
	BYTE		        65*DistantYear_mvl/mxv
	BYTE	W01
	BYTE		        65*DistantYear_mvl/mxv
	BYTE	W01
// 042   ----------------------------------------
	BYTE		        66*DistantYear_mvl/mxv
	BYTE	W01
	BYTE		        67*DistantYear_mvl/mxv
	BYTE	W01
	BYTE		        68*DistantYear_mvl/mxv
	BYTE	W01
	BYTE		        68*DistantYear_mvl/mxv
	BYTE	W01
	BYTE		        70*DistantYear_mvl/mxv
	BYTE	W01
	BYTE		        71*DistantYear_mvl/mxv
	BYTE	W01
	BYTE		        71*DistantYear_mvl/mxv
	BYTE	W01
	BYTE		        72*DistantYear_mvl/mxv
	BYTE	W01
	BYTE		        73*DistantYear_mvl/mxv
	BYTE	W01
	BYTE		        73*DistantYear_mvl/mxv
	BYTE	W01
	BYTE		        74*DistantYear_mvl/mxv
	BYTE	W01
	BYTE		        75*DistantYear_mvl/mxv
	BYTE	W01
	BYTE		        75*DistantYear_mvl/mxv
	BYTE	W01
	BYTE		        77*DistantYear_mvl/mxv
	BYTE	W01
	BYTE		        77*DistantYear_mvl/mxv
	BYTE	W01
	BYTE		        78*DistantYear_mvl/mxv
	BYTE	W01
	BYTE		        78*DistantYear_mvl/mxv
	BYTE	W01
	BYTE		        79*DistantYear_mvl/mxv
	BYTE	W78
	BYTE	W01
// 043   ----------------------------------------
	BYTE	W08
	BYTE		        79*DistantYear_mvl/mxv
	BYTE	W03
	BYTE		        78*DistantYear_mvl/mxv
	BYTE	W01
	BYTE		        78*DistantYear_mvl/mxv
	BYTE	W01
	BYTE		        78*DistantYear_mvl/mxv
	BYTE	W01
	BYTE		        78*DistantYear_mvl/mxv
	BYTE	W01
	BYTE		        77*DistantYear_mvl/mxv
	BYTE	W01
	BYTE		        77*DistantYear_mvl/mxv
	BYTE	W01
	BYTE		        77*DistantYear_mvl/mxv
	BYTE	W02
	BYTE		        76*DistantYear_mvl/mxv
	BYTE	W01
	BYTE		        76*DistantYear_mvl/mxv
	BYTE	W01
	BYTE		        75*DistantYear_mvl/mxv
	BYTE	W01
	BYTE		        75*DistantYear_mvl/mxv
	BYTE	W01
	BYTE		        75*DistantYear_mvl/mxv
	BYTE	W01
	BYTE		        74*DistantYear_mvl/mxv
	BYTE	W01
	BYTE		        74*DistantYear_mvl/mxv
	BYTE	W02
	BYTE		        73*DistantYear_mvl/mxv
	BYTE	W01
	BYTE		        73*DistantYear_mvl/mxv
	BYTE	W01
	BYTE		        73*DistantYear_mvl/mxv
	BYTE	W01
	BYTE		        73*DistantYear_mvl/mxv
	BYTE	W01
	BYTE		        73*DistantYear_mvl/mxv
	BYTE	W01
	BYTE		        72*DistantYear_mvl/mxv
	BYTE	W02
	BYTE		        72*DistantYear_mvl/mxv
	BYTE	W01
	BYTE		        71*DistantYear_mvl/mxv
	BYTE	W01
	BYTE		        71*DistantYear_mvl/mxv
	BYTE	W01
	BYTE		        71*DistantYear_mvl/mxv
	BYTE	W01
	BYTE		        70*DistantYear_mvl/mxv
	BYTE	W01
	BYTE		        70*DistantYear_mvl/mxv
	BYTE	W01
	BYTE		        69*DistantYear_mvl/mxv
	BYTE	W02
	BYTE		        69*DistantYear_mvl/mxv
	BYTE	W01
	BYTE		        68*DistantYear_mvl/mxv
	BYTE	W01
	BYTE		        68*DistantYear_mvl/mxv
	BYTE	W01
	BYTE		        68*DistantYear_mvl/mxv
	BYTE	W01
	BYTE		        67*DistantYear_mvl/mxv
	BYTE	W01
	BYTE		        67*DistantYear_mvl/mxv
	BYTE	W01
	BYTE		        68*DistantYear_mvl/mxv
	BYTE	W01
	BYTE		        68*DistantYear_mvl/mxv
	BYTE	W01
	BYTE		        68*DistantYear_mvl/mxv
	BYTE	W01
	BYTE		        69*DistantYear_mvl/mxv
	BYTE	W01
	BYTE		        69*DistantYear_mvl/mxv
	BYTE	W01
	BYTE		        70*DistantYear_mvl/mxv
	BYTE	W01
	BYTE		        71*DistantYear_mvl/mxv
	BYTE	W01
	BYTE		        71*DistantYear_mvl/mxv
	BYTE	W01
	BYTE		        71*DistantYear_mvl/mxv
	BYTE	W01
	BYTE		        72*DistantYear_mvl/mxv
	BYTE	W01
	BYTE		        72*DistantYear_mvl/mxv
	BYTE	W01
	BYTE		        73*DistantYear_mvl/mxv
	BYTE	W01
	BYTE		        73*DistantYear_mvl/mxv
	BYTE	W01
	BYTE		        73*DistantYear_mvl/mxv
	BYTE	W01
	BYTE		        73*DistantYear_mvl/mxv
	BYTE	W01
	BYTE		        74*DistantYear_mvl/mxv
	BYTE	W01
	BYTE		        74*DistantYear_mvl/mxv
	BYTE	W01
	BYTE		        75*DistantYear_mvl/mxv
	BYTE	W01
	BYTE		        75*DistantYear_mvl/mxv
	BYTE	W01
	BYTE		        75*DistantYear_mvl/mxv
	BYTE	W01
	BYTE		        76*DistantYear_mvl/mxv
	BYTE	W01
	BYTE		        76*DistantYear_mvl/mxv
	BYTE	W01
	BYTE		        77*DistantYear_mvl/mxv
	BYTE	W01
	BYTE		        77*DistantYear_mvl/mxv
	BYTE	W01
	BYTE		        78*DistantYear_mvl/mxv
	BYTE	W01
	BYTE		        78*DistantYear_mvl/mxv
	BYTE	W01
	BYTE		        78*DistantYear_mvl/mxv
	BYTE	W01
	BYTE		        78*DistantYear_mvl/mxv
	BYTE	W01
	BYTE		        79*DistantYear_mvl/mxv
	BYTE	W20
// 044   ----------------------------------------
	BYTE	W96
// 045   ----------------------------------------
	BYTE	W96
// 046   ----------------------------------------
	BYTE	W96
// 047   ----------------------------------------
	BYTE	W96
// 048   ----------------------------------------
	BYTE	W96
// 049   ----------------------------------------
	BYTE	W96
// 050   ----------------------------------------
	BYTE	W96
// 051   ----------------------------------------
	BYTE	W52
	BYTE		        79*DistantYear_mvl/mxv
	BYTE	W20
	BYTE		        77*DistantYear_mvl/mxv
	BYTE		PAN     c_v+0
	BYTE		N06     Dn2   v120
	BYTE	W06
	BYTE		        An2 
	BYTE	W06
	BYTE		        Dn3 
	BYTE	W06
	BYTE		        Gn3 
	BYTE	W06
// 052   ----------------------------------------
	BYTE		        Fn3 
	BYTE	W06
	BYTE		        An3 
	BYTE	W06
	BYTE		        Dn4 
	BYTE	W06
	BYTE		        An4   v104
	BYTE	W06
	BYTE	GoTo
	 POIN2	DistantYear_3_B1
DistantYear_3_B2:
	BYTE		VOL     79*DistantYear_mvl/mxv
	BYTE		PAN     c_v-24
	BYTE	FINE

//**************** Track 4 (Midi-Chn.4) ****************//

DistantYear_4:
	BYTE	KEYSH   DistantYear_key+0
// 000   ----------------------------------------
	BYTE		VOICE   68
	BYTE	W24
DistantYear_4_B1:
	BYTE	W72
// 001   ----------------------------------------
	BYTE	W96
// 002   ----------------------------------------
	BYTE	W96
// 003   ----------------------------------------
	BYTE	W96
// 004   ----------------------------------------
	BYTE	W96
// 005   ----------------------------------------
	BYTE	W96
// 006   ----------------------------------------
	BYTE	W96
// 007   ----------------------------------------
	BYTE	W96
// 008   ----------------------------------------
	BYTE	W24
	BYTE		VOL     68*DistantYear_mvl/mxv
	BYTE		PAN     c_v+17
	BYTE	W72
// 009   ----------------------------------------
	BYTE	W96
// 010   ----------------------------------------
	BYTE	W96
// 011   ----------------------------------------
	BYTE	W96
// 012   ----------------------------------------
	BYTE	W96
// 013   ----------------------------------------
	BYTE	W96
// 014   ----------------------------------------
	BYTE	W96
// 015   ----------------------------------------
	BYTE	W92
	BYTE	W03
	BYTE		VOL     68*DistantYear_mvl/mxv
	BYTE	W01
// 016   ----------------------------------------
	BYTE		        82*DistantYear_mvl/mxv
	BYTE		PAN     c_v+0
	BYTE		N05     As2   v112
	BYTE	W06
	BYTE		        Cn3 
	BYTE	W06
	BYTE		        Cs3 
	BYTE	W06
	BYTE		        Ds3 
	BYTE	W06
	BYTE		N23     Fn3 
	BYTE	W24
	BYTE		        Cn4   v108
	BYTE	W24
	BYTE		        As3   v112
	BYTE	W24
// 017   ----------------------------------------
	BYTE		        Gs3 
	BYTE	W24
	BYTE		        Ds4   v100
	BYTE	W24
	BYTE		N20     Cn4   v104
	BYTE	W24
	BYTE		N23     Cn4   v100
	BYTE	W24
// 018   ----------------------------------------
	BYTE		        As3 
	BYTE	W24
	BYTE		VOL     67*DistantYear_mvl/mxv
	BYTE		TIE     Gn3   v108
	BYTE	W10
	BYTE		VOL     68*DistantYear_mvl/mxv
	BYTE	W08
	BYTE		        68*DistantYear_mvl/mxv
	BYTE	W07
	BYTE		        68*DistantYear_mvl/mxv
	BYTE	W05
	BYTE		        69*DistantYear_mvl/mxv
	BYTE	W06
	BYTE		        69*DistantYear_mvl/mxv
	BYTE	W05
	BYTE		        70*DistantYear_mvl/mxv
	BYTE	W05
	BYTE		        70*DistantYear_mvl/mxv
	BYTE	W02
	BYTE		        71*DistantYear_mvl/mxv
	BYTE	W06
	BYTE		        71*DistantYear_mvl/mxv
	BYTE	W02
	BYTE		        71*DistantYear_mvl/mxv
	BYTE	W03
	BYTE		        72*DistantYear_mvl/mxv
	BYTE	W05
	BYTE		        72*DistantYear_mvl/mxv
	BYTE	W02
	BYTE		        73*DistantYear_mvl/mxv
	BYTE	W03
	BYTE		        73*DistantYear_mvl/mxv
	BYTE	W03
// 019   ----------------------------------------
	BYTE		        73*DistantYear_mvl/mxv
	BYTE	W02
	BYTE		        73*DistantYear_mvl/mxv
	BYTE	W03
	BYTE		        74*DistantYear_mvl/mxv
	BYTE	W02
	BYTE		        75*DistantYear_mvl/mxv
	BYTE	W03
	BYTE		        75*DistantYear_mvl/mxv
	BYTE	W02
	BYTE		        76*DistantYear_mvl/mxv
	BYTE	W03
	BYTE		        77*DistantYear_mvl/mxv
	BYTE	W03
	BYTE		        77*DistantYear_mvl/mxv
	BYTE	W02
	BYTE		        78*DistantYear_mvl/mxv
	BYTE	W03
	BYTE		        79*DistantYear_mvl/mxv
	BYTE	W02
	BYTE		        80*DistantYear_mvl/mxv
	BYTE	W03
	BYTE		        82*DistantYear_mvl/mxv
	BYTE	W02
	BYTE		        81*DistantYear_mvl/mxv
	BYTE	W02
	BYTE		        81*DistantYear_mvl/mxv
	BYTE	W02
	BYTE		        80*DistantYear_mvl/mxv
	BYTE	W02
	BYTE		        80*DistantYear_mvl/mxv
	BYTE	W02
	BYTE		        79*DistantYear_mvl/mxv
	BYTE	W01
	BYTE		        79*DistantYear_mvl/mxv
	BYTE	W02
	BYTE		        79*DistantYear_mvl/mxv
	BYTE	W01
	BYTE		        78*DistantYear_mvl/mxv
	BYTE	W02
	BYTE		        78*DistantYear_mvl/mxv
	BYTE	W01
	BYTE		        78*DistantYear_mvl/mxv
	BYTE	W02
	BYTE		        78*DistantYear_mvl/mxv
	BYTE	W01
	BYTE		        77*DistantYear_mvl/mxv
	BYTE	W01
	BYTE		        77*DistantYear_mvl/mxv
	BYTE	W01
	BYTE		        77*DistantYear_mvl/mxv
	BYTE	W01
	BYTE		        76*DistantYear_mvl/mxv
	BYTE	W02
	BYTE		        76*DistantYear_mvl/mxv
	BYTE	W01
	BYTE		        75*DistantYear_mvl/mxv
	BYTE	W01
	BYTE		        75*DistantYear_mvl/mxv
	BYTE	W01
	BYTE		        75*DistantYear_mvl/mxv
	BYTE	W01
	BYTE		        74*DistantYear_mvl/mxv
	BYTE	W02
	BYTE		        73*DistantYear_mvl/mxv
	BYTE	W01
	BYTE		        73*DistantYear_mvl/mxv
	BYTE	W02
	BYTE		        73*DistantYear_mvl/mxv
	BYTE	W01
	BYTE		        73*DistantYear_mvl/mxv
	BYTE	W02
	BYTE		        72*DistantYear_mvl/mxv
	BYTE	W01
	BYTE		        71*DistantYear_mvl/mxv
	BYTE	W01
	BYTE		        71*DistantYear_mvl/mxv
	BYTE	W01
	BYTE		        71*DistantYear_mvl/mxv
	BYTE	W01
	BYTE		        70*DistantYear_mvl/mxv
	BYTE	W01
	BYTE		        69*DistantYear_mvl/mxv
	BYTE	W01
	BYTE		        69*DistantYear_mvl/mxv
	BYTE	W01
	BYTE		        68*DistantYear_mvl/mxv
	BYTE	W01
	BYTE		        68*DistantYear_mvl/mxv
	BYTE	W01
	BYTE		        67*DistantYear_mvl/mxv
	BYTE	W01
	BYTE		        66*DistantYear_mvl/mxv
	BYTE	W01
	BYTE		        66*DistantYear_mvl/mxv
	BYTE	W01
	BYTE		        65*DistantYear_mvl/mxv
	BYTE	W01
	BYTE		        64*DistantYear_mvl/mxv
	BYTE	W01
	BYTE		        64*DistantYear_mvl/mxv
	BYTE	W01
	BYTE		        63*DistantYear_mvl/mxv
	BYTE	W01
	BYTE		        62*DistantYear_mvl/mxv
	BYTE	W01
	BYTE		        62*DistantYear_mvl/mxv
	BYTE	W01
	BYTE		        61*DistantYear_mvl/mxv
	BYTE	W01
	BYTE		        60*DistantYear_mvl/mxv
	BYTE	W01
	BYTE		        59*DistantYear_mvl/mxv
	BYTE	W01
	BYTE		        58*DistantYear_mvl/mxv
	BYTE	W01
	BYTE		        57*DistantYear_mvl/mxv
	BYTE	W01
	BYTE		        56*DistantYear_mvl/mxv
	BYTE	W01
	BYTE		        55*DistantYear_mvl/mxv
	BYTE	W01
	BYTE		        54*DistantYear_mvl/mxv
	BYTE	W01
	BYTE		        52*DistantYear_mvl/mxv
	BYTE	W01
	BYTE		        51*DistantYear_mvl/mxv
	BYTE	W01
	BYTE		        50*DistantYear_mvl/mxv
	BYTE	W01
	BYTE		        49*DistantYear_mvl/mxv
	BYTE	W01
	BYTE		        46*DistantYear_mvl/mxv
	BYTE	W01
// 020   ----------------------------------------
	BYTE		        45*DistantYear_mvl/mxv
	BYTE	W01
	BYTE		        43*DistantYear_mvl/mxv
	BYTE	W01
	BYTE		        40*DistantYear_mvl/mxv
	BYTE	W01
	BYTE		        37*DistantYear_mvl/mxv
	BYTE	W01
	BYTE		        35*DistantYear_mvl/mxv
	BYTE	W01
	BYTE		        31*DistantYear_mvl/mxv
	BYTE	W01
	BYTE		EOT   
	BYTE		VOL     27*DistantYear_mvl/mxv
	BYTE	W01
	BYTE		        25*DistantYear_mvl/mxv
	BYTE	W01
	BYTE		        19*DistantYear_mvl/mxv
	BYTE	W01
	BYTE		        0*DistantYear_mvl/mxv
	BYTE	W01
	BYTE		        0*DistantYear_mvl/mxv
	BYTE	W10
	BYTE		        82*DistantYear_mvl/mxv
	BYTE	W76
// 021   ----------------------------------------
	BYTE	W96
// 022   ----------------------------------------
	BYTE	W96
// 023   ----------------------------------------
	BYTE	W96
// 024   ----------------------------------------
	BYTE	W72
	BYTE		        82*DistantYear_mvl/mxv
	BYTE		PAN     c_v+0
	BYTE	W24
// 025   ----------------------------------------
	BYTE	W68
	BYTE	W01
	BYTE		VOL     79*DistantYear_mvl/mxv
	BYTE	W01
	BYTE		        71*DistantYear_mvl/mxv
	BYTE	W01
	BYTE		        62*DistantYear_mvl/mxv
	BYTE	W01
	BYTE		        62*DistantYear_mvl/mxv
	BYTE	W01
	BYTE		        64*DistantYear_mvl/mxv
	BYTE	W01
	BYTE		        65*DistantYear_mvl/mxv
	BYTE	W01
	BYTE		        67*DistantYear_mvl/mxv
	BYTE	W01
	BYTE		        69*DistantYear_mvl/mxv
	BYTE	W01
	BYTE		        70*DistantYear_mvl/mxv
	BYTE	W01
	BYTE		        72*DistantYear_mvl/mxv
	BYTE	W01
	BYTE		        73*DistantYear_mvl/mxv
	BYTE	W01
	BYTE		        74*DistantYear_mvl/mxv
	BYTE	W01
	BYTE		        76*DistantYear_mvl/mxv
	BYTE	W01
	BYTE		        77*DistantYear_mvl/mxv
	BYTE	W01
	BYTE		        78*DistantYear_mvl/mxv
	BYTE	W01
	BYTE		        79*DistantYear_mvl/mxv
	BYTE	W01
	BYTE		        82*DistantYear_mvl/mxv
	BYTE	W11
// 026   ----------------------------------------
	BYTE	W96
// 027   ----------------------------------------
	BYTE	W68
	BYTE		        80*DistantYear_mvl/mxv
	BYTE	W01
	BYTE		        77*DistantYear_mvl/mxv
	BYTE	W01
	BYTE		        74*DistantYear_mvl/mxv
	BYTE	W01
	BYTE		        70*DistantYear_mvl/mxv
	BYTE	W01
	BYTE		        69*DistantYear_mvl/mxv
	BYTE	W01
	BYTE		        70*DistantYear_mvl/mxv
	BYTE	W01
	BYTE		        71*DistantYear_mvl/mxv
	BYTE	W01
	BYTE		        71*DistantYear_mvl/mxv
	BYTE	W01
	BYTE		        72*DistantYear_mvl/mxv
	BYTE	W01
	BYTE		        73*DistantYear_mvl/mxv
	BYTE	W01
	BYTE		        73*DistantYear_mvl/mxv
	BYTE	W01
	BYTE		        74*DistantYear_mvl/mxv
	BYTE	W01
	BYTE		        75*DistantYear_mvl/mxv
	BYTE	W01
	BYTE		        75*DistantYear_mvl/mxv
	BYTE	W01
	BYTE		        76*DistantYear_mvl/mxv
	BYTE	W01
	BYTE		        77*DistantYear_mvl/mxv
	BYTE	W01
	BYTE		        78*DistantYear_mvl/mxv
	BYTE	W01
	BYTE		        78*DistantYear_mvl/mxv
	BYTE	W01
	BYTE		        79*DistantYear_mvl/mxv
	BYTE	W01
	BYTE		        79*DistantYear_mvl/mxv
	BYTE	W01
	BYTE		        80*DistantYear_mvl/mxv
	BYTE	W01
	BYTE		        82*DistantYear_mvl/mxv
	BYTE	W07
// 028   ----------------------------------------
	BYTE	W96
// 029   ----------------------------------------
	BYTE	W68
	BYTE	W01
	BYTE		        82*DistantYear_mvl/mxv
	BYTE	W01
	BYTE		        80*DistantYear_mvl/mxv
	BYTE	W01
	BYTE		        77*DistantYear_mvl/mxv
	BYTE	W01
	BYTE		        75*DistantYear_mvl/mxv
	BYTE	W01
	BYTE		        73*DistantYear_mvl/mxv
	BYTE	W01
	BYTE		        71*DistantYear_mvl/mxv
	BYTE	W01
	BYTE		        67*DistantYear_mvl/mxv
	BYTE	W01
	BYTE		        67*DistantYear_mvl/mxv
	BYTE	W01
	BYTE		        68*DistantYear_mvl/mxv
	BYTE	W01
	BYTE		        69*DistantYear_mvl/mxv
	BYTE	W01
	BYTE		        71*DistantYear_mvl/mxv
	BYTE	W01
	BYTE		        71*DistantYear_mvl/mxv
	BYTE	W01
	BYTE		        73*DistantYear_mvl/mxv
	BYTE	W01
	BYTE		        73*DistantYear_mvl/mxv
	BYTE	W01
	BYTE		        74*DistantYear_mvl/mxv
	BYTE	W01
	BYTE		        75*DistantYear_mvl/mxv
	BYTE	W01
	BYTE		        77*DistantYear_mvl/mxv
	BYTE	W01
	BYTE		        77*DistantYear_mvl/mxv
	BYTE	W01
	BYTE		        78*DistantYear_mvl/mxv
	BYTE	W01
	BYTE		        79*DistantYear_mvl/mxv
	BYTE	W01
	BYTE		        80*DistantYear_mvl/mxv
	BYTE	W01
	BYTE		        82*DistantYear_mvl/mxv
	BYTE	W06
// 030   ----------------------------------------
	BYTE	W24
	BYTE		        82*DistantYear_mvl/mxv
	BYTE		PAN     c_v+0
	BYTE	W60
	BYTE		N12     As4   v088
	BYTE	W12
// 031   ----------------------------------------
	BYTE		        Gs4   v096
	BYTE	W12
	BYTE		        Gn4   v092
	BYTE	W12
	BYTE		N30     Fn4 
	BYTE	W30
	BYTE		N06     Fn4   v064
	BYTE	W06
	BYTE		        Fn4   v092
	BYTE	W06
	BYTE		        Gn4 
	BYTE	W06
	BYTE		N21     Gs4 
	BYTE	W24
// 032   ----------------------------------------
	BYTE		N06     As3   v084
	BYTE		N06     Cs4   v092
	BYTE	W06
	BYTE		        Cn4   v084
	BYTE		N06     Ds4   v100
	BYTE	W06
	BYTE		        Cs4   v088
	BYTE		N06     Fn4   v100
	BYTE	W06
	BYTE		        Ds4   v092
	BYTE		N06     Gn4   v104
	BYTE	W06
	BYTE		N18     Gs4   v108
	BYTE	W18
	BYTE		N06     Gn4 
	BYTE	W06
	BYTE		        Gn4   v064
	BYTE	W12
	BYTE		N36     Ds4   v108
	BYTE	W36
// 033   ----------------------------------------
	BYTE		N06     Ds4   v064
	BYTE	W12
	BYTE		N03     Ds4   v108
	BYTE	W06
	BYTE		        Fn4 
	BYTE	W06
	BYTE		N18     Fs4 
	BYTE	W18
	BYTE		N06     Fn4 
	BYTE	W06
	BYTE		        Fn4   v064
	BYTE	W12
	BYTE		N36     Cs4   v108
	BYTE	W36
// 034   ----------------------------------------
	BYTE		N06     Cs4   v064
	BYTE	W12
	BYTE		N03     Cs4   v108
	BYTE	W06
	BYTE		        Ds4 
	BYTE	W06
	BYTE		N18     En4 
	BYTE	W18
	BYTE		N06     Ds4 
	BYTE	W06
	BYTE		        Ds4   v064
	BYTE	W12
	BYTE		N36     Bn3   v108
	BYTE	W36
// 035   ----------------------------------------
	BYTE	W03
	BYTE		N06     Bn3   v064
	BYTE	W09
	BYTE		N03     Cs4   v108
	BYTE	W06
	BYTE		        Ds4 
	BYTE	W06
	BYTE		N18     Fs4 
	BYTE	W18
	BYTE		N06     Fs4   v064
	BYTE	W06
	BYTE		N18     Fn4   v108
	BYTE	W18
	BYTE		N06     Fn4   v064
	BYTE	W06
	BYTE		N18     Ds4   v108
	BYTE	W18
	BYTE		N06     Ds4   v064
	BYTE	W06
// 036   ----------------------------------------
	BYTE		N18     Cs4   v108
	BYTE	W18
	BYTE		N06     Cs4   v064
	BYTE	W78
// 037   ----------------------------------------
	BYTE	W96
// 038   ----------------------------------------
	BYTE	W96
// 039   ----------------------------------------
	BYTE	W96
// 040   ----------------------------------------
	BYTE	W96
// 041   ----------------------------------------
	BYTE	W96
// 042   ----------------------------------------
	BYTE	W96
// 043   ----------------------------------------
	BYTE	W96
// 044   ----------------------------------------
	BYTE	W24
	BYTE		VOL     82*DistantYear_mvl/mxv
	BYTE		PAN     c_v+0
	BYTE	W12
	BYTE		N12     Gn3   v116
	BYTE	W12
	BYTE		N06     Fn3 
	BYTE	W06
	BYTE		        Fn3   v064
	BYTE	W30
	BYTE		N12     As3   v116
	BYTE	W12
// 045   ----------------------------------------
	BYTE		N06     Gn3 
	BYTE	W06
	BYTE		        Gn3   v064
	BYTE	W30
	BYTE		N12     An3   v116
	BYTE	W12
	BYTE		N06     Dn3 
	BYTE	W06
	BYTE		        Dn3   v064
	BYTE	W30
	BYTE		N12     Gn3   v116
	BYTE	W12
// 046   ----------------------------------------
	BYTE	W36
	BYTE		N12   
	BYTE	W12
	BYTE		N06     Fn3 
	BYTE	W06
	BYTE		        Fn3   v064
	BYTE	W30
	BYTE		N12     As3   v116
	BYTE	W12
// 047   ----------------------------------------
	BYTE		N06     Gn3 
	BYTE	W06
	BYTE		        Gn3   v064
	BYTE	W30
	BYTE		N12     An3   v116
	BYTE	W12
	BYTE		N06     As3 
	BYTE	W06
	BYTE		        As3   v064
	BYTE	W30
	BYTE		N12     Gn3   v116
	BYTE	W12
// 048   ----------------------------------------
	BYTE	W48
	BYTE		N23     Gn3   v104
	BYTE	W24
	BYTE		        An3 
	BYTE	W24
// 049   ----------------------------------------
	BYTE		        As3 
	BYTE	W24
	BYTE		        Cn4 
	BYTE	W24
	BYTE		        As3 
	BYTE	W24
	BYTE		N17     Dn4 
	BYTE	W18
	BYTE		N05     Dn4   v064
	BYTE	W06
// 050   ----------------------------------------
	BYTE		        Cn4   v104
	BYTE	W06
	BYTE		        Cn4   v064
	BYTE	W06
	BYTE		        As3   v104
	BYTE	W06
	BYTE		        As3   v064
	BYTE	W06
	BYTE		N68     An3   v096
	BYTE	W72
// 051   ----------------------------------------
	BYTE		N11     An3   v100
	BYTE	W12
	BYTE		        As3 
	BYTE	W12
	BYTE		N44     Cn4   v092
	BYTE	W72
// 052   ----------------------------------------
	BYTE	W24
	BYTE	GoTo
	 POIN2	DistantYear_4_B1
DistantYear_4_B2:
	BYTE	FINE

//**************** Track 5 (Midi-Chn.5) ****************//

DistantYear_5:
	BYTE	KEYSH   DistantYear_key+0
// 000   ----------------------------------------
	BYTE		VOICE   60
	BYTE	W24
DistantYear_5_B1:
	BYTE		VOL     82*DistantYear_mvl/mxv
	BYTE		PAN     c_v+20
	BYTE		N52     Fn3   v112
	BYTE	W60
	BYTE		N05     Cn3 
	BYTE	W12
// 001   ----------------------------------------
	BYTE		        Fn3 
	BYTE	W12
	BYTE		N05   
	BYTE	W12
	BYTE		N23   
	BYTE	W24
	BYTE		N05   
	BYTE	W12
	BYTE		N44   
	BYTE	W36
// 002   ----------------------------------------
DistantYear_5_002:
	BYTE	W24
	BYTE		N40     Fn3   v112
	BYTE	W48
	BYTE		N17     Cn3 
	BYTE	W24
	BYTE	PEND
// 003   ----------------------------------------
	BYTE		N05     Fn3 
	BYTE	W12
	BYTE		N05   
	BYTE	W12
	BYTE		N23   
	BYTE	W24
	BYTE		N05     Ds3 
	BYTE	W12
	BYTE		N28     Fn3 
	BYTE	W36
// 004   ----------------------------------------
	BYTE		N23     Cn4   v100
	BYTE	W24
	BYTE		N44     As3 
	BYTE	W48
	BYTE		N28     Gn3 
	BYTE	W24
// 005   ----------------------------------------
	BYTE	W12
	BYTE		N05     An3 
	BYTE	W12
	BYTE		N40     As3 
	BYTE	W48
	BYTE		N17     Fn3 
	BYTE	W24
// 006   ----------------------------------------
	BYTE		        Dn3 
	BYTE	W24
	BYTE		N56     Gs3 
	BYTE	W60
	BYTE		N05     Fn3 
	BYTE	W12
// 007   ----------------------------------------
	BYTE		        Gn3 
	BYTE	W12
	BYTE		        Gs3 
	BYTE	W12
	BYTE		N11     As3 
	BYTE	W24
	BYTE		N17     Gn3   v112
	BYTE		N17     As3 
	BYTE	W24
	BYTE		        Ds3   v108
	BYTE		N17     Gn3 
	BYTE	W24
// 008   ----------------------------------------
	BYTE		        As2   v112
	BYTE		N17     Ds3 
	BYTE	W24
	BYTE		N52     Fn3 
	BYTE	W60
	BYTE		N05     Cn3 
	BYTE	W12
// 009   ----------------------------------------
	BYTE		        Fn3 
	BYTE	W12
	BYTE		N05   
	BYTE	W12
	BYTE		N20   
	BYTE	W24
	BYTE		N05   
	BYTE	W12
	BYTE		N44   
	BYTE	W36
// 010   ----------------------------------------
	BYTE	PATT
	 POIN2	DistantYear_5_002
// 011   ----------------------------------------
	BYTE		N05     Fn3   v112
	BYTE	W12
	BYTE		N05   
	BYTE	W12
	BYTE		N20   
	BYTE	W24
	BYTE		N05     Ds3 
	BYTE	W12
	BYTE		N28     Fn3 
	BYTE	W36
// 012   ----------------------------------------
	BYTE		N23     Cn4   v100
	BYTE	W24
	BYTE		N40     As3   v112
	BYTE	W48
	BYTE		N32     Fs3 
	BYTE	W24
// 013   ----------------------------------------
	BYTE	W12
	BYTE		N05     Gs3 
	BYTE	W12
	BYTE		N40     As3 
	BYTE	W48
	BYTE		N11     Fn3 
	BYTE	W24
// 014   ----------------------------------------
	BYTE		N05     Dn3 
	BYTE	W06
	BYTE		        Ds3 
	BYTE	W06
	BYTE		        Fn3 
	BYTE	W06
	BYTE		        Gn3 
	BYTE	W06
	BYTE		N52     Gs3 
	BYTE	W60
	BYTE		N05     Fn3 
	BYTE	W12
// 015   ----------------------------------------
	BYTE		        Gn3 
	BYTE	W12
	BYTE		        Gs3 
	BYTE	W12
	BYTE		N40     As3 
	BYTE	W48
	BYTE		N20     Fn3 
	BYTE		N20     Gs3 
	BYTE	W24
// 016   ----------------------------------------
	BYTE		        Ds3 
	BYTE		N20     Fs3 
	BYTE	W24
	BYTE		N92     Fn3 
	BYTE	W13
	BYTE		VOL     82*DistantYear_mvl/mxv
	BYTE	W02
	BYTE		        81*DistantYear_mvl/mxv
	BYTE	W01
	BYTE		        81*DistantYear_mvl/mxv
	BYTE	W01
	BYTE		        80*DistantYear_mvl/mxv
	BYTE	W01
	BYTE		        80*DistantYear_mvl/mxv
	BYTE	W02
	BYTE		        79*DistantYear_mvl/mxv
	BYTE	W01
	BYTE		        79*DistantYear_mvl/mxv
	BYTE	W01
	BYTE		        79*DistantYear_mvl/mxv
	BYTE	W01
	BYTE		        78*DistantYear_mvl/mxv
	BYTE	W01
	BYTE		        78*DistantYear_mvl/mxv
	BYTE	W02
	BYTE		        78*DistantYear_mvl/mxv
	BYTE	W01
	BYTE		        78*DistantYear_mvl/mxv
	BYTE	W01
	BYTE		        77*DistantYear_mvl/mxv
	BYTE	W01
	BYTE		        77*DistantYear_mvl/mxv
	BYTE	W01
	BYTE		        77*DistantYear_mvl/mxv
	BYTE	W01
	BYTE		        76*DistantYear_mvl/mxv
	BYTE	W01
	BYTE		        76*DistantYear_mvl/mxv
	BYTE	W01
	BYTE		        75*DistantYear_mvl/mxv
	BYTE	W01
	BYTE		        75*DistantYear_mvl/mxv
	BYTE	W01
	BYTE		        75*DistantYear_mvl/mxv
	BYTE	W01
	BYTE		        74*DistantYear_mvl/mxv
	BYTE	W01
	BYTE		        74*DistantYear_mvl/mxv
	BYTE	W01
	BYTE		        73*DistantYear_mvl/mxv
	BYTE	W01
	BYTE		        73*DistantYear_mvl/mxv
	BYTE	W02
	BYTE		        73*DistantYear_mvl/mxv
	BYTE	W01
	BYTE		        72*DistantYear_mvl/mxv
	BYTE	W01
	BYTE		        72*DistantYear_mvl/mxv
	BYTE	W01
	BYTE		        71*DistantYear_mvl/mxv
	BYTE	W01
	BYTE		        71*DistantYear_mvl/mxv
	BYTE	W01
	BYTE		        70*DistantYear_mvl/mxv
	BYTE	W01
	BYTE		        70*DistantYear_mvl/mxv
	BYTE	W01
	BYTE		        69*DistantYear_mvl/mxv
	BYTE	W02
	BYTE		        68*DistantYear_mvl/mxv
	BYTE	W01
	BYTE		        67*DistantYear_mvl/mxv
	BYTE	W01
	BYTE		        67*DistantYear_mvl/mxv
	BYTE	W01
	BYTE		        66*DistantYear_mvl/mxv
	BYTE	W01
	BYTE		        66*DistantYear_mvl/mxv
	BYTE	W01
	BYTE		        65*DistantYear_mvl/mxv
	BYTE	W01
	BYTE		        64*DistantYear_mvl/mxv
	BYTE	W01
	BYTE		        63*DistantYear_mvl/mxv
	BYTE	W01
	BYTE		        63*DistantYear_mvl/mxv
	BYTE	W01
	BYTE		        62*DistantYear_mvl/mxv
	BYTE	W01
	BYTE		        61*DistantYear_mvl/mxv
	BYTE	W01
	BYTE		        61*DistantYear_mvl/mxv
	BYTE	W01
	BYTE		        60*DistantYear_mvl/mxv
	BYTE	W01
	BYTE		        59*DistantYear_mvl/mxv
	BYTE	W01
	BYTE		        59*DistantYear_mvl/mxv
	BYTE	W01
	BYTE		        58*DistantYear_mvl/mxv
	BYTE	W01
	BYTE		        57*DistantYear_mvl/mxv
	BYTE	W01
	BYTE		        56*DistantYear_mvl/mxv
	BYTE	W01
	BYTE		        56*DistantYear_mvl/mxv
	BYTE	W01
	BYTE		        55*DistantYear_mvl/mxv
	BYTE	W01
	BYTE		        54*DistantYear_mvl/mxv
	BYTE	W01
	BYTE		        52*DistantYear_mvl/mxv
	BYTE	W01
// 017   ----------------------------------------
	BYTE		        51*DistantYear_mvl/mxv
	BYTE	W01
	BYTE		        50*DistantYear_mvl/mxv
	BYTE	W01
	BYTE		        49*DistantYear_mvl/mxv
	BYTE	W01
	BYTE		        47*DistantYear_mvl/mxv
	BYTE	W01
	BYTE		        46*DistantYear_mvl/mxv
	BYTE	W01
	BYTE		        45*DistantYear_mvl/mxv
	BYTE	W01
	BYTE		        43*DistantYear_mvl/mxv
	BYTE	W01
	BYTE		        42*DistantYear_mvl/mxv
	BYTE	W01
	BYTE		        40*DistantYear_mvl/mxv
	BYTE	W01
	BYTE		        39*DistantYear_mvl/mxv
	BYTE	W01
	BYTE		        37*DistantYear_mvl/mxv
	BYTE	W01
	BYTE		        35*DistantYear_mvl/mxv
	BYTE	W01
	BYTE		        31*DistantYear_mvl/mxv
	BYTE	W01
	BYTE		        29*DistantYear_mvl/mxv
	BYTE	W01
	BYTE		        27*DistantYear_mvl/mxv
	BYTE	W01
	BYTE		        22*DistantYear_mvl/mxv
	BYTE	W01
	BYTE		        19*DistantYear_mvl/mxv
	BYTE	W01
	BYTE		        15*DistantYear_mvl/mxv
	BYTE	W01
	BYTE		        0*DistantYear_mvl/mxv
	BYTE	W78
// 018   ----------------------------------------
	BYTE	W96
// 019   ----------------------------------------
	BYTE	W96
// 020   ----------------------------------------
	BYTE	W96
// 021   ----------------------------------------
	BYTE	W96
// 022   ----------------------------------------
	BYTE	W96
// 023   ----------------------------------------
	BYTE	W96
// 024   ----------------------------------------
	BYTE	W23
	BYTE		        0*DistantYear_mvl/mxv
	BYTE	W01
	BYTE		        78*DistantYear_mvl/mxv
	BYTE		PAN     c_v+10
	BYTE	W72
// 025   ----------------------------------------
	BYTE	W96
// 026   ----------------------------------------
	BYTE	W96
// 027   ----------------------------------------
	BYTE	W96
// 028   ----------------------------------------
	BYTE	W96
// 029   ----------------------------------------
	BYTE	W96
// 030   ----------------------------------------
	BYTE	W96
// 031   ----------------------------------------
	BYTE	W96
// 032   ----------------------------------------
	BYTE	W96
// 033   ----------------------------------------
	BYTE	W96
// 034   ----------------------------------------
	BYTE	W96
// 035   ----------------------------------------
	BYTE	W96
// 036   ----------------------------------------
	BYTE	W96
// 037   ----------------------------------------
	BYTE	W96
// 038   ----------------------------------------
	BYTE	W96
// 039   ----------------------------------------
	BYTE	W96
// 040   ----------------------------------------
	BYTE	W96
// 041   ----------------------------------------
	BYTE	W96
// 042   ----------------------------------------
	BYTE	W96
// 043   ----------------------------------------
	BYTE	W96
// 044   ----------------------------------------
	BYTE	W96
// 045   ----------------------------------------
	BYTE	W96
// 046   ----------------------------------------
	BYTE	W96
// 047   ----------------------------------------
	BYTE	W96
// 048   ----------------------------------------
	BYTE	W96
// 049   ----------------------------------------
	BYTE	W96
// 050   ----------------------------------------
	BYTE	W96
// 051   ----------------------------------------
	BYTE	W96
// 052   ----------------------------------------
	BYTE	W24
	BYTE	GoTo
	 POIN2	DistantYear_5_B1
DistantYear_5_B2:
	BYTE		VOL     82*DistantYear_mvl/mxv
	BYTE		PAN     c_v+20
	BYTE	FINE

//**************** Track 6 (Midi-Chn.6) ****************//

DistantYear_6:
	BYTE	KEYSH   DistantYear_key+0
// 000   ----------------------------------------
	BYTE		VOICE   64
	BYTE	W24
DistantYear_6_B1:
	BYTE		VOL     77*DistantYear_mvl/mxv
	BYTE		PAN     c_v-14
	BYTE		N06     Fn3   v104
	BYTE	W12
	BYTE		N06   
	BYTE	W36
	BYTE		N06   
	BYTE	W12
	BYTE		N06   
	BYTE	W12
// 001   ----------------------------------------
DistantYear_6_001:
	BYTE	W12
	BYTE		N06     Fn3   v104
	BYTE	W12
	BYTE		N06   
	BYTE	W12
	BYTE		N06   
	BYTE	W24
	BYTE		N06   
	BYTE	W12
	BYTE		N06   
	BYTE	W12
	BYTE		N06   
	BYTE	W12
	BYTE	PEND
// 002   ----------------------------------------
DistantYear_6_002:
	BYTE	W24
	BYTE		N06     Fn3   v104
	BYTE	W12
	BYTE		N06   
	BYTE	W36
	BYTE		        Cn3 
	BYTE	W12
	BYTE		N06   
	BYTE	W12
	BYTE	PEND
// 003   ----------------------------------------
DistantYear_6_003:
	BYTE	W12
	BYTE		N06     Cn3   v104
	BYTE	W12
	BYTE		        Fn3 
	BYTE	W12
	BYTE		N06   
	BYTE	W24
	BYTE		N06   
	BYTE	W12
	BYTE		        Cn3 
	BYTE	W12
	BYTE		N06   
	BYTE	W12
	BYTE	PEND
// 004   ----------------------------------------
DistantYear_6_004:
	BYTE	W12
	BYTE		N06     Cn3   v104
	BYTE	W12
	BYTE		        Ds3 
	BYTE	W12
	BYTE		N06   
	BYTE	W24
	BYTE		N06   
	BYTE	W12
	BYTE		N06   
	BYTE	W12
	BYTE		N06   
	BYTE	W12
	BYTE	PEND
// 005   ----------------------------------------
DistantYear_6_005:
	BYTE	W12
	BYTE		N06     Ds3   v104
	BYTE	W12
	BYTE		        Fn3 
	BYTE	W12
	BYTE		N06   
	BYTE	W24
	BYTE		N06   
	BYTE	W12
	BYTE		N06   
	BYTE	W12
	BYTE		N06   
	BYTE	W12
	BYTE	PEND
// 006   ----------------------------------------
DistantYear_6_006:
	BYTE		N06     Fn3   v104
	BYTE	W12
	BYTE		N06   
	BYTE	W12
	BYTE		        Cs3 
	BYTE	W12
	BYTE		N06   
	BYTE	W24
	BYTE		N06   
	BYTE	W12
	BYTE		N06   
	BYTE	W12
	BYTE		N06   
	BYTE	W12
	BYTE	PEND
// 007   ----------------------------------------
DistantYear_6_007:
	BYTE	W12
	BYTE		N06     Cs3   v104
	BYTE	W12
	BYTE		        Ds3 
	BYTE	W12
	BYTE		N06   
	BYTE	W36
	BYTE		N06   
	BYTE	W12
	BYTE		N06   
	BYTE	W12
	BYTE	PEND
// 008   ----------------------------------------
	BYTE		N06   
	BYTE	W12
	BYTE		N06   
	BYTE	W12
	BYTE		        Fn3 
	BYTE	W12
	BYTE		N06   
	BYTE	W36
	BYTE		N06   
	BYTE	W12
	BYTE		N06   
	BYTE	W12
// 009   ----------------------------------------
	BYTE	PATT
	 POIN2	DistantYear_6_001
// 010   ----------------------------------------
	BYTE	PATT
	 POIN2	DistantYear_6_002
// 011   ----------------------------------------
	BYTE	PATT
	 POIN2	DistantYear_6_003
// 012   ----------------------------------------
	BYTE	PATT
	 POIN2	DistantYear_6_004
// 013   ----------------------------------------
	BYTE	PATT
	 POIN2	DistantYear_6_005
// 014   ----------------------------------------
	BYTE	PATT
	 POIN2	DistantYear_6_006
// 015   ----------------------------------------
	BYTE	PATT
	 POIN2	DistantYear_6_007
// 016   ----------------------------------------
	BYTE		N06     Ds3   v104
	BYTE	W12
	BYTE		N06   
	BYTE	W12
	BYTE		        Gs3 
	BYTE	W06
	BYTE		        Gs3   v072
	BYTE	W06
	BYTE		        Gs3   v104
	BYTE	W06
	BYTE		        Gs3   v072
	BYTE	W18
	BYTE		        Gs3   v104
	BYTE	W12
	BYTE		N06   
	BYTE	W06
	BYTE		        Gs3   v072
	BYTE	W06
	BYTE		        Gs3   v104
	BYTE	W06
	BYTE		        Gs3   v072
	BYTE	W06
// 017   ----------------------------------------
DistantYear_6_017:
	BYTE	W12
	BYTE		N06     Gs3   v104
	BYTE	W12
	BYTE		N06   
	BYTE	W06
	BYTE		        Gs3   v072
	BYTE	W06
	BYTE		        Gs3   v104
	BYTE	W06
	BYTE		        Gs3   v072
	BYTE	W18
	BYTE		        Gs3   v104
	BYTE	W12
	BYTE		N06   
	BYTE	W06
	BYTE		        Gs3   v072
	BYTE	W06
	BYTE		        Gs3   v104
	BYTE	W06
	BYTE		        Gs3   v072
	BYTE	W06
	BYTE	PEND
// 018   ----------------------------------------
DistantYear_6_018:
	BYTE	W12
	BYTE		N06     Gs3   v104
	BYTE	W12
	BYTE		        Gn3 
	BYTE	W06
	BYTE		        Gn3   v072
	BYTE	W06
	BYTE		        Gn3   v104
	BYTE	W06
	BYTE		        Gn3   v072
	BYTE	W18
	BYTE		        Gn3   v104
	BYTE	W12
	BYTE		N06   
	BYTE	W06
	BYTE		        Gn3   v072
	BYTE	W06
	BYTE		        Gn3   v104
	BYTE	W06
	BYTE		        Gn3   v072
	BYTE	W06
	BYTE	PEND
// 019   ----------------------------------------
DistantYear_6_019:
	BYTE	W12
	BYTE		N06     Gn3   v104
	BYTE	W12
	BYTE		N06   
	BYTE	W06
	BYTE		        Gn3   v072
	BYTE	W06
	BYTE		        Gn3   v104
	BYTE	W06
	BYTE		        Gn3   v072
	BYTE	W18
	BYTE		        Gn3   v104
	BYTE	W12
	BYTE		N06   
	BYTE	W06
	BYTE		        Gn3   v072
	BYTE	W06
	BYTE		        Gn3   v104
	BYTE	W06
	BYTE		        Gn3   v072
	BYTE	W06
	BYTE	PEND
// 020   ----------------------------------------
	BYTE	W12
	BYTE		        Gn3   v104
	BYTE	W12
	BYTE		        Gs3 
	BYTE	W06
	BYTE		        Gs3   v072
	BYTE	W06
	BYTE		        Gs3   v104
	BYTE	W06
	BYTE		        Gs3   v072
	BYTE	W18
	BYTE		        Gs3   v104
	BYTE	W12
	BYTE		N06   
	BYTE	W06
	BYTE		        Gs3   v072
	BYTE	W06
	BYTE		        Gs3   v104
	BYTE	W06
	BYTE		        Gs3   v072
	BYTE	W06
// 021   ----------------------------------------
	BYTE	PATT
	 POIN2	DistantYear_6_017
// 022   ----------------------------------------
	BYTE	PATT
	 POIN2	DistantYear_6_018
// 023   ----------------------------------------
	BYTE	PATT
	 POIN2	DistantYear_6_019
// 024   ----------------------------------------
	BYTE	W24
	BYTE		VOL     64*DistantYear_mvl/mxv
	BYTE		PAN     c_v-24
	BYTE	W72
// 025   ----------------------------------------
	BYTE	W96
// 026   ----------------------------------------
	BYTE	W96
// 027   ----------------------------------------
	BYTE	W96
// 028   ----------------------------------------
	BYTE	W96
// 029   ----------------------------------------
	BYTE	W96
// 030   ----------------------------------------
	BYTE	W96
// 031   ----------------------------------------
	BYTE	W96
// 032   ----------------------------------------
	BYTE	W24
	BYTE		VOL     77*DistantYear_mvl/mxv
	BYTE		PAN     c_v-4
	BYTE		N06     Gs3   v116
	BYTE	W18
	BYTE		N06   
	BYTE	W18
	BYTE		N36     Ds3 
	BYTE	W36
// 033   ----------------------------------------
	BYTE		N06     Ds3   v064
	BYTE	W24
	BYTE		        Gs3   v116
	BYTE	W18
	BYTE		N06   
	BYTE	W18
	BYTE		N36     Cs3 
	BYTE	W36
// 034   ----------------------------------------
	BYTE		N06     Cs3   v064
	BYTE	W24
	BYTE		        Fs3   v116
	BYTE	W18
	BYTE		N06   
	BYTE	W18
	BYTE		N36     Bn2 
	BYTE	W36
// 035   ----------------------------------------
	BYTE		N06     Bn2   v064
	BYTE	W24
	BYTE		N21     Ds3   v116
	BYTE	W24
	BYTE		        Fn3 
	BYTE	W24
	BYTE		        Fs3 
	BYTE	W24
// 036   ----------------------------------------
	BYTE		        Fn3 
	BYTE	W24
	BYTE		N06     Fn3   v112
	BYTE	W12
	BYTE		        Fn3   v060
	BYTE	W12
	BYTE		        Fn3   v112
	BYTE	W12
	BYTE		        Fn3   v060
	BYTE	W12
	BYTE		        Fn3   v112
	BYTE	W12
	BYTE		        Fn3   v060
	BYTE	W12
// 037   ----------------------------------------
	BYTE		        Fn3   v112
	BYTE	W12
	BYTE		        Fn3   v060
	BYTE	W12
	BYTE		        Fn3   v112
	BYTE	W12
	BYTE		        Fn3   v060
	BYTE	W12
	BYTE		        Fn3   v112
	BYTE	W12
	BYTE		        Fn3   v060
	BYTE	W12
	BYTE		        Fn3   v112
	BYTE	W12
	BYTE		        Fn3   v060
	BYTE	W12
// 038   ----------------------------------------
DistantYear_6_038:
	BYTE		N06     Fn3   v112
	BYTE	W12
	BYTE		        Fn3   v060
	BYTE	W12
	BYTE		        Dn3   v112
	BYTE	W12
	BYTE		        Dn3   v060
	BYTE	W12
	BYTE		        Dn3   v112
	BYTE	W12
	BYTE		        Dn3   v060
	BYTE	W12
	BYTE		        Dn3   v112
	BYTE	W12
	BYTE		        Dn3   v060
	BYTE	W12
	BYTE	PEND
// 039   ----------------------------------------
DistantYear_6_039:
	BYTE		N06     Dn3   v112
	BYTE	W12
	BYTE		        Dn3   v060
	BYTE	W12
	BYTE		        Ds3   v112
	BYTE	W12
	BYTE		        Ds3   v060
	BYTE	W12
	BYTE		        Ds3   v112
	BYTE	W12
	BYTE		        Ds3   v060
	BYTE	W12
	BYTE		        Ds3   v112
	BYTE	W12
	BYTE		        Ds3   v060
	BYTE	W12
	BYTE	PEND
// 040   ----------------------------------------
	BYTE		        Ds3   v112
	BYTE	W12
	BYTE		        Ds3   v060
	BYTE	W12
	BYTE		        Fn3   v112
	BYTE	W12
	BYTE		        Fn3   v060
	BYTE	W12
	BYTE		        Fn3   v112
	BYTE	W12
	BYTE		        Fn3   v060
	BYTE	W12
	BYTE		        Fn3   v112
	BYTE	W12
	BYTE		        Fn3   v060
	BYTE	W12
// 041   ----------------------------------------
	BYTE	PATT
	 POIN2	DistantYear_6_038
// 042   ----------------------------------------
	BYTE	PATT
	 POIN2	DistantYear_6_039
// 043   ----------------------------------------
	BYTE		N06     Ds3   v112
	BYTE	W12
	BYTE		        Ds3   v060
	BYTE	W12
	BYTE		        Dn3   v112
	BYTE	W12
	BYTE		        Dn3   v060
	BYTE	W12
	BYTE		        Dn3   v112
	BYTE	W12
	BYTE		        Dn3   v060
	BYTE	W12
	BYTE		        Dn3   v112
	BYTE	W12
	BYTE		        Dn3   v060
	BYTE	W12
// 044   ----------------------------------------
	BYTE		        Dn3   v112
	BYTE	W12
	BYTE		        Dn3   v060
	BYTE	W12
	BYTE		VOL     73*DistantYear_mvl/mxv
	BYTE		PAN     c_v+16
	BYTE	W72
// 045   ----------------------------------------
	BYTE	W96
// 046   ----------------------------------------
	BYTE	W96
// 047   ----------------------------------------
	BYTE	W96
// 048   ----------------------------------------
	BYTE	W24
	BYTE		VOL     77*DistantYear_mvl/mxv
	BYTE		PAN     c_v-4
	BYTE	W72
// 049   ----------------------------------------
	BYTE	W96
// 050   ----------------------------------------
	BYTE	W96
// 051   ----------------------------------------
	BYTE	W96
// 052   ----------------------------------------
	BYTE	W24
	BYTE	GoTo
	 POIN2	DistantYear_6_B1
DistantYear_6_B2:
	BYTE		VOL     77*DistantYear_mvl/mxv
	BYTE		PAN     c_v-14
	BYTE	FINE

//**************** Track 7 (Midi-Chn.7) ****************//

DistantYear_7:
	BYTE	KEYSH   DistantYear_key+0
// 000   ----------------------------------------
	BYTE		VOICE   123
	BYTE	W24
DistantYear_7_B1:
	BYTE		VOL     72*DistantYear_mvl/mxv
	BYTE		PAN     c_v+0
	BYTE		N06     Fs1   v092
	BYTE	W36
	BYTE		N06   
	BYTE	W12
	BYTE		N06   
	BYTE	W24
// 001   ----------------------------------------
	BYTE	W12
	BYTE		        Fs1   v080
	BYTE	W12
	BYTE		        Fs1   v084
	BYTE	W36
	BYTE		N06   
	BYTE	W12
	BYTE		        Fs1   v068
	BYTE	W12
	BYTE		N06   
	BYTE	W12
// 002   ----------------------------------------
	BYTE		        Fs1   v084
	BYTE	W06
	BYTE		N06   
	BYTE	W06
	BYTE		N11     As1   v096
	BYTE	W12
	BYTE		N06     Fs1   v088
	BYTE	W36
	BYTE		        Fs1   v096
	BYTE	W12
	BYTE		N06   
	BYTE	W12
	BYTE		        Fs1   v100
	BYTE	W12
// 003   ----------------------------------------
	BYTE	W12
	BYTE		        Fs1   v096
	BYTE	W12
	BYTE		        Fs1   v100
	BYTE	W36
	BYTE		        Fs1   v096
	BYTE	W12
	BYTE		        Fs1   v100
	BYTE	W12
	BYTE		        Fs1   v072
	BYTE	W12
// 004   ----------------------------------------
	BYTE		        Fs1   v100
	BYTE	W12
	BYTE		N11     As1   v092
	BYTE	W12
	BYTE		N06     Fs1   v088
	BYTE	W36
	BYTE		        Fs1   v092
	BYTE	W12
	BYTE		        Fs1   v088
	BYTE	W12
	BYTE		        Fs1   v080
	BYTE	W12
// 005   ----------------------------------------
	BYTE	W12
	BYTE		N06   
	BYTE	W12
	BYTE		        Fs1   v100
	BYTE	W36
	BYTE		        Fs1   v092
	BYTE	W12
	BYTE		        Fs1   v096
	BYTE	W24
// 006   ----------------------------------------
	BYTE		N06   
	BYTE	W12
	BYTE		N10     As1   v092
	BYTE	W12
	BYTE		N06     Fs1   v084
	BYTE	W36
	BYTE		        Fs1   v092
	BYTE	W12
	BYTE		        Fs1   v100
	BYTE	W24
// 007   ----------------------------------------
	BYTE	W12
	BYTE		        Fs1   v096
	BYTE	W12
	BYTE		        Fs1   v092
	BYTE	W12
	BYTE		N06   
	BYTE	W24
	BYTE		        Fs1   v100
	BYTE	W12
	BYTE		        Fs1   v084
	BYTE	W12
	BYTE		N10     As1   v100
	BYTE	W12
// 008   ----------------------------------------
	BYTE		N06     Fs1   v088
	BYTE	W12
	BYTE		        Fs1   v100
	BYTE	W06
	BYTE		        Fs1   v088
	BYTE	W06
	BYTE		        Fs1   v092
	BYTE	W36
	BYTE		N06   
	BYTE	W12
	BYTE		N06   
	BYTE	W24
// 009   ----------------------------------------
	BYTE		N08     Dn1   v124
	BYTE	W12
	BYTE		N06     Fs1   v080
	BYTE	W12
	BYTE		        Fs1   v084
	BYTE	W36
	BYTE		N06   
	BYTE	W12
	BYTE		        Fs1   v068
	BYTE	W12
	BYTE		N06   
	BYTE	W12
// 010   ----------------------------------------
	BYTE		        Fs1   v084
	BYTE	W06
	BYTE		N06   
	BYTE	W06
	BYTE		N11     As1   v104
	BYTE	W12
	BYTE		N06     Fs1   v088
	BYTE	W36
	BYTE		        Fs1   v096
	BYTE	W12
	BYTE		N06   
	BYTE	W12
	BYTE		        Fs1   v100
	BYTE	W12
// 011   ----------------------------------------
	BYTE		N08     Dn1   v124
	BYTE	W12
	BYTE		N06     Fs1   v096
	BYTE	W12
	BYTE		        Fs1   v100
	BYTE	W36
	BYTE		        Fs1   v096
	BYTE	W12
	BYTE		        Fs1   v100
	BYTE	W12
	BYTE		        Fs1   v072
	BYTE	W12
// 012   ----------------------------------------
	BYTE		        Dn1   v120
	BYTE	W12
	BYTE		N11     As1   v092
	BYTE	W12
	BYTE		N07     Dn1   v124
	BYTE	W36
	BYTE		N05   
	BYTE	W12
	BYTE		N06     Fs1   v088
	BYTE	W12
	BYTE		        Fs1   v080
	BYTE	W12
// 013   ----------------------------------------
	BYTE	W12
	BYTE		N06   
	BYTE	W12
	BYTE		        Dn1   v124
	BYTE	W36
	BYTE		N07   
	BYTE	W12
	BYTE		N06     Fs1   v096
	BYTE	W24
// 014   ----------------------------------------
	BYTE		N06   
	BYTE	W12
	BYTE		N05     Dn1   v124
	BYTE	W12
	BYTE		N06   
	BYTE	W36
	BYTE		N07   
	BYTE	W12
	BYTE		N06     Fs1   v100
	BYTE	W24
// 015   ----------------------------------------
	BYTE		N06   
	BYTE	W12
	BYTE		N04     Dn1   v112
	BYTE	W12
	BYTE		N05   
	BYTE	W12
	BYTE		        Dn1   v124
	BYTE	W24
	BYTE		N05   
	BYTE	W24
	BYTE		N04   
	BYTE	W12
// 016   ----------------------------------------
	BYTE		N05   
	BYTE	W24
	BYTE		N44     Cs2   v100
	BYTE	W12
	BYTE		N05     Dn1   v108
	BYTE	W36
	BYTE		        Dn1   v124
	BYTE	W12
	BYTE		N06     Dn1   v112
	BYTE	W12
// 017   ----------------------------------------
	BYTE	W12
	BYTE		N04     Dn1   v120
	BYTE	W12
	BYTE		N05     Dn1   v108
	BYTE	W12
	BYTE		        Dn1   v120
	BYTE	W36
	BYTE		N06     Dn1   v108
	BYTE	W12
	BYTE		N05     Dn1   v112
	BYTE	W12
// 018   ----------------------------------------
	BYTE	W24
	BYTE		        Dn1   v120
	BYTE	W12
	BYTE		        Dn1   v104
	BYTE	W36
	BYTE		        Dn1   v124
	BYTE	W12
	BYTE		        Dn1   v104
	BYTE	W12
// 019   ----------------------------------------
	BYTE	W12
	BYTE		N04     Dn1   v120
	BYTE	W12
	BYTE		N05     Dn1   v112
	BYTE	W12
	BYTE		        Dn1   v100
	BYTE	W24
	BYTE		        Dn1   v096
	BYTE	W12
	BYTE		        Dn1   v112
	BYTE	W12
	BYTE		        Dn1   v108
	BYTE	W12
// 020   ----------------------------------------
	BYTE	W12
	BYTE		N03     Dn1   v104
	BYTE	W06
	BYTE		        Dn1   v092
	BYTE	W06
	BYTE		N05     Dn1   v100
	BYTE	W12
	BYTE		        Dn1   v108
	BYTE	W36
	BYTE		        Dn1   v112
	BYTE	W12
	BYTE		N06     Dn1   v100
	BYTE	W12
// 021   ----------------------------------------
	BYTE	W12
	BYTE		N04     Dn1   v108
	BYTE	W12
	BYTE		N05     Dn1   v104
	BYTE	W12
	BYTE		        Dn1   v100
	BYTE	W36
	BYTE		N04     Dn1   v124
	BYTE	W12
	BYTE		N05     Dn1   v108
	BYTE	W12
// 022   ----------------------------------------
	BYTE	W24
	BYTE		N04     Dn1   v112
	BYTE	W12
	BYTE		N05     Dn1   v104
	BYTE	W36
	BYTE		N04     Dn1   v112
	BYTE	W12
	BYTE		N05   
	BYTE	W12
// 023   ----------------------------------------
	BYTE	W12
	BYTE		N04     Dn1   v104
	BYTE	W12
	BYTE		        Dn1   v108
	BYTE	W12
	BYTE		        Dn1   v120
	BYTE	W24
	BYTE		        Dn1   v100
	BYTE	W12
	BYTE		        Dn1   v108
	BYTE	W12
	BYTE		N04   
	BYTE	W12
// 024   ----------------------------------------
	BYTE		        Dn1   v112
	BYTE	W12
	BYTE		N03   
	BYTE	W06
	BYTE		        Dn1   v096
	BYTE	W06
	BYTE		N05     Dn1   v104
	BYTE	W72
// 025   ----------------------------------------
	BYTE	W96
// 026   ----------------------------------------
	BYTE	W96
// 027   ----------------------------------------
	BYTE	W96
// 028   ----------------------------------------
	BYTE	W96
// 029   ----------------------------------------
	BYTE	W96
// 030   ----------------------------------------
	BYTE	W96
// 031   ----------------------------------------
	BYTE	W42
	BYTE		TIE     En2   v127
	BYTE	W54
// 032   ----------------------------------------
	BYTE		N24     Ds1   v112
	BYTE	W24
	BYTE		N12     Dn1   v120
	BYTE	W60
	BYTE		EOT     En2 
	BYTE		N04     Dn1   v084
	BYTE	W04
	BYTE		        Dn1   v104
	BYTE	W04
	BYTE		N04   
	BYTE	W04
// 033   ----------------------------------------
DistantYear_7_033:
	BYTE		N12     Dn1   v120
	BYTE	W84
	BYTE		N04     Dn1   v104
	BYTE	W04
	BYTE		N04   
	BYTE	W04
	BYTE		N04   
	BYTE	W04
	BYTE	PEND
// 034   ----------------------------------------
	BYTE	PATT
	 POIN2	DistantYear_7_033
// 035   ----------------------------------------
	BYTE		N12     Dn1   v120
	BYTE	W24
	BYTE		N12   
	BYTE	W24
	BYTE		N12   
	BYTE	W24
	BYTE		N12   
	BYTE	W12
	BYTE		N12   
	BYTE	W12
// 036   ----------------------------------------
	BYTE		N12   
	BYTE	W12
	BYTE		N06   
	BYTE	W06
	BYTE		N06   
	BYTE	W06
	BYTE		N12   
	BYTE	W24
	BYTE		N06     Fs1   v084
	BYTE	W24
	BYTE		N06   
	BYTE	W24
// 037   ----------------------------------------
DistantYear_7_037:
	BYTE		N06     Fs1   v084
	BYTE	W24
	BYTE		N06   
	BYTE	W24
	BYTE		N06   
	BYTE	W24
	BYTE		N06   
	BYTE	W24
	BYTE	PEND
// 038   ----------------------------------------
DistantYear_7_038:
	BYTE		N06     Fs1   v084
	BYTE	W12
	BYTE		N06   
	BYTE	W12
	BYTE		N06   
	BYTE	W24
	BYTE		N06   
	BYTE	W24
	BYTE		N06   
	BYTE	W24
	BYTE	PEND
// 039   ----------------------------------------
	BYTE	PATT
	 POIN2	DistantYear_7_037
// 040   ----------------------------------------
	BYTE		N06     Fs1   v084
	BYTE	W06
	BYTE		        Fs1   v056
	BYTE	W06
	BYTE		N12     As1   v084
	BYTE	W12
	BYTE		N06     Fs1 
	BYTE	W24
	BYTE		N06   
	BYTE	W24
	BYTE		N06   
	BYTE	W24
// 041   ----------------------------------------
	BYTE	PATT
	 POIN2	DistantYear_7_037
// 042   ----------------------------------------
	BYTE	PATT
	 POIN2	DistantYear_7_038
// 043   ----------------------------------------
	BYTE	PATT
	 POIN2	DistantYear_7_037
// 044   ----------------------------------------
	BYTE		N06     Fs1   v084
	BYTE	W12
	BYTE		N06   
	BYTE	W06
	BYTE		        Fs1   v056
	BYTE	W18
	BYTE		N12     As1   v064
	BYTE	W12
	BYTE		N06     Fs1   v084
	BYTE	W36
	BYTE		N12     As1   v064
	BYTE	W12
// 045   ----------------------------------------
DistantYear_7_045:
	BYTE		N06     Fs1   v084
	BYTE	W12
	BYTE		        Fs1   v060
	BYTE	W24
	BYTE		N12     As1   v064
	BYTE	W12
	BYTE		N06     Fs1   v084
	BYTE	W36
	BYTE		N04     Fs2   v080
	BYTE	W04
	BYTE		        Fs2   v084
	BYTE	W04
	BYTE		        Fs2   v092
	BYTE	W04
	BYTE	PEND
// 046   ----------------------------------------
	BYTE		N06     Fs2   v100
	BYTE	W12
	BYTE		        Fs2   v060
	BYTE	W24
	BYTE		N12     As1   v064
	BYTE	W12
	BYTE		N06     Fs1   v084
	BYTE	W36
	BYTE		N12     As1   v064
	BYTE	W12
// 047   ----------------------------------------
	BYTE	PATT
	 POIN2	DistantYear_7_045
// 048   ----------------------------------------
	BYTE		N06     Fs2   v100
	BYTE	W12
	BYTE		        Fs2   v060
	BYTE	W36
	BYTE		N42     Dn2   v100
	BYTE	W48
// 049   ----------------------------------------
	BYTE	W12
	BYTE		N12   
	BYTE	W12
	BYTE		N24   
	BYTE	W24
	BYTE		N24   
	BYTE	W48
// 050   ----------------------------------------
	BYTE		N24   
	BYTE	W24
	BYTE		N42   
	BYTE	W72
// 051   ----------------------------------------
	BYTE	W12
	BYTE		N12   
	BYTE	W12
	BYTE		N42   
	BYTE	W48
	BYTE		N42   
	BYTE	W24
// 052   ----------------------------------------
	BYTE	W24
	BYTE	GoTo
	 POIN2	DistantYear_7_B1
DistantYear_7_B2:
	BYTE		VOL     72*DistantYear_mvl/mxv
	BYTE		PAN     c_v+0
	BYTE	FINE

//**************** Track 8 (Midi-Chn.8) ****************//

DistantYear_8:
	BYTE	KEYSH   DistantYear_key+0
// 000   ----------------------------------------
	BYTE		VOICE   57
	BYTE		VOL     77*DistantYear_mvl/mxv
	BYTE		PAN     c_v-8
	BYTE	W24
DistantYear_8_B1:
	BYTE	W72
// 001   ----------------------------------------
	BYTE	W96
// 002   ----------------------------------------
	BYTE	W96
// 003   ----------------------------------------
	BYTE	W96
// 004   ----------------------------------------
	BYTE	W96
// 005   ----------------------------------------
	BYTE	W96
// 006   ----------------------------------------
	BYTE	W96
// 007   ----------------------------------------
	BYTE	W96
// 008   ----------------------------------------
	BYTE		N24     Gn4   v104
	BYTE	W24
	BYTE		N36     Fn4 
	BYTE	W36
	BYTE		N12     Dn4 
	BYTE	W12
	BYTE		N24   
	BYTE	W24
// 009   ----------------------------------------
	BYTE		        As3 
	BYTE	W24
	BYTE		N36     Cn4 
	BYTE	W36
	BYTE		N12     As3 
	BYTE	W12
	BYTE		N24     Cn4 
	BYTE	W24
// 010   ----------------------------------------
	BYTE		N12     Dn4 
	BYTE	W12
	BYTE		        Cn4 
	BYTE	W12
	BYTE		N36     As3 
	BYTE	W36
	BYTE		N12     Gn3 
	BYTE	W12
	BYTE		N24   
	BYTE	W24
// 011   ----------------------------------------
	BYTE		        Fn3 
	BYTE	W24
	BYTE		N96     As3 
	BYTE	W72
// 012   ----------------------------------------
	BYTE	W96
// 013   ----------------------------------------
	BYTE	W96
// 014   ----------------------------------------
	BYTE	W96
// 015   ----------------------------------------
	BYTE	W96
// 016   ----------------------------------------
	BYTE	W96
// 017   ----------------------------------------
	BYTE	W96
// 018   ----------------------------------------
	BYTE	W96
// 019   ----------------------------------------
	BYTE	W12
	BYTE		N05     Ds4   v084
	BYTE		N05     Gn4   v092
	BYTE	W06
	BYTE		        Fn4   v084
	BYTE		N05     Gs4   v092
	BYTE	W06
	BYTE		N36     Ds4   v088
	BYTE		N36     Gn4   v096
	BYTE	W36
	BYTE		N05     Cn4   v084
	BYTE		N05     Ds4   v092
	BYTE	W06
	BYTE		        Dn4   v084
	BYTE		N05     Fn4   v092
	BYTE	W06
	BYTE		N42     Cn4   v088
	BYTE		N42     Ds4   v096
	BYTE	W24
// 020   ----------------------------------------
	BYTE	W18
	BYTE		N05     Ds4   v072
	BYTE	W78
// 021   ----------------------------------------
	BYTE	W96
// 022   ----------------------------------------
	BYTE	W96
// 023   ----------------------------------------
	BYTE	W96
// 024   ----------------------------------------
	BYTE	W42
	BYTE		N04     Cn3   v048
	BYTE	W06
	BYTE		        Fn2   v084
	BYTE		N04     Cn3   v092
	BYTE	W06
	BYTE		        Cn3   v048
	BYTE	W06
	BYTE		        Fn2   v076
	BYTE		N04     Cn3   v080
	BYTE	W06
	BYTE		        Cn3   v048
	BYTE	W06
	BYTE		        Fn2   v072
	BYTE		N04     Cn3   v084
	BYTE	W06
	BYTE		        Cn3   v048
	BYTE	W06
	BYTE		        Fn2   v084
	BYTE		N04     Cn3   v088
	BYTE	W06
	BYTE		        Cn3   v048
	BYTE	W06
// 025   ----------------------------------------
	BYTE		        Fn2   v088
	BYTE		N04     Cn3   v096
	BYTE	W06
	BYTE		        Cn3   v048
	BYTE	W06
	BYTE		        Fn2   v084
	BYTE		N04     Cn3   v092
	BYTE	W12
	BYTE		        Gn2   v100
	BYTE		N04     Ds3 
	BYTE	W06
	BYTE		        Ds3   v048
	BYTE	W06
	BYTE		        Gn2   v084
	BYTE		N04     Ds3   v096
	BYTE	W06
	BYTE		        Ds3   v048
	BYTE	W06
	BYTE		        Gn2   v084
	BYTE		N04     Ds3   v092
	BYTE	W06
	BYTE		        Ds3   v048
	BYTE	W06
	BYTE		        Gn2   v084
	BYTE		N04     Ds3   v100
	BYTE	W06
	BYTE		        Ds3   v048
	BYTE	W06
	BYTE		        Gn2   v084
	BYTE		N04     Ds3   v100
	BYTE	W06
	BYTE		        Ds3   v048
	BYTE	W06
	BYTE		        Gn2   v084
	BYTE		N04     Ds3   v100
	BYTE	W06
	BYTE		        Ds3   v048
	BYTE	W06
// 026   ----------------------------------------
	BYTE		        Gn2   v080
	BYTE		N04     Ds3   v092
	BYTE	W06
	BYTE		        Ds3   v048
	BYTE	W06
	BYTE		        Gn2   v076
	BYTE		N04     Ds3 
	BYTE	W06
	BYTE		        Ds3   v048
	BYTE	W06
	BYTE		        Fn2   v088
	BYTE		N04     Cn3   v100
	BYTE	W06
	BYTE		        Cn3   v048
	BYTE	W06
	BYTE		        Fn2   v084
	BYTE		N04     Cn3   v092
	BYTE	W06
	BYTE		        Cn3   v048
	BYTE	W06
	BYTE		        Fn2   v084
	BYTE		N04     Cn3   v092
	BYTE	W06
	BYTE		        Cn3   v048
	BYTE	W06
	BYTE		        Fn2   v080
	BYTE		N04     Cn3   v088
	BYTE	W06
	BYTE		        Cn3   v048
	BYTE	W06
	BYTE		        Fn2   v080
	BYTE		N04     Cn3   v092
	BYTE	W06
	BYTE		        Cn3   v048
	BYTE	W06
	BYTE		        Fn2   v076
	BYTE		N04     Cn3   v088
	BYTE	W06
	BYTE		        Cn3   v048
	BYTE	W06
// 027   ----------------------------------------
	BYTE		        Fn2   v080
	BYTE		N04     Cn3   v084
	BYTE	W06
	BYTE		        Cn3   v048
	BYTE	W06
	BYTE		        Fn2   v084
	BYTE		N04     Cn3 
	BYTE	W06
	BYTE		        Cn3   v048
	BYTE	W06
	BYTE		        Gn2   v096
	BYTE		N04     Ds3   v100
	BYTE	W06
	BYTE		        Ds3   v048
	BYTE	W06
	BYTE		        Gn2   v076
	BYTE		N04     Ds3   v092
	BYTE	W06
	BYTE		        Ds3   v048
	BYTE	W06
	BYTE		        Gn2   v076
	BYTE		N04     Ds3   v084
	BYTE	W06
	BYTE		        Ds3   v048
	BYTE	W06
	BYTE		        Gn2   v084
	BYTE		N04     Ds3   v100
	BYTE	W06
	BYTE		        Ds3   v048
	BYTE	W06
	BYTE		        Gn2   v084
	BYTE		N04     Ds3   v100
	BYTE	W06
	BYTE		        Ds3   v048
	BYTE	W06
	BYTE		        Gn2   v084
	BYTE		N04     Ds3   v100
	BYTE	W06
	BYTE		        Ds3   v048
	BYTE	W06
// 028   ----------------------------------------
	BYTE		        Gn2   v084
	BYTE		N04     Ds3   v100
	BYTE	W06
	BYTE		        Ds3   v048
	BYTE	W06
	BYTE		        Gn2   v084
	BYTE		N04     Ds3 
	BYTE	W06
	BYTE		        Ds3   v048
	BYTE	W06
	BYTE		        Fn2   v092
	BYTE		N04     As2   v104
	BYTE	W06
	BYTE		        As2   v048
	BYTE	W06
	BYTE		        Fn2   v080
	BYTE		N04     As2   v100
	BYTE	W06
	BYTE		        As2   v048
	BYTE	W06
	BYTE		        Fn2   v072
	BYTE		N04     As2   v068
	BYTE	W06
	BYTE		        As2   v048
	BYTE	W06
	BYTE		        Fn2   v080
	BYTE		N04     As2   v100
	BYTE	W06
	BYTE		        As2   v048
	BYTE	W06
	BYTE		        Fn2   v084
	BYTE		N04     As2   v100
	BYTE	W06
	BYTE		        As2   v048
	BYTE	W06
	BYTE		        Fn2   v080
	BYTE		N04     As2   v096
	BYTE	W06
	BYTE		        As2   v048
	BYTE	W06
// 029   ----------------------------------------
	BYTE		        Fn2   v084
	BYTE		N04     As2   v092
	BYTE	W06
	BYTE		        As2   v048
	BYTE	W06
	BYTE		        Fn2   v084
	BYTE		N04     As2   v104
	BYTE	W06
	BYTE		        As2   v048
	BYTE	W06
	BYTE		        Gs2   v092
	BYTE		N04     Cn3   v096
	BYTE	W06
	BYTE		        Cn3   v048
	BYTE	W06
	BYTE		        Gs2   v088
	BYTE		N04     Cn3   v092
	BYTE	W06
	BYTE		        Cn3   v048
	BYTE	W06
	BYTE		        Gs2   v084
	BYTE		N04     Cn3 
	BYTE	W06
	BYTE		        Cn3   v048
	BYTE	W06
	BYTE		        Gs2   v072
	BYTE		N04     Cn3   v092
	BYTE	W06
	BYTE		        Cn3   v048
	BYTE	W06
	BYTE		        Gs2   v072
	BYTE		N04     Cn3   v088
	BYTE	W06
	BYTE		        Cn3   v048
	BYTE	W06
	BYTE		        Gs2   v088
	BYTE		N04     Cn3 
	BYTE	W06
	BYTE		        Cn3   v048
	BYTE	W06
// 030   ----------------------------------------
	BYTE		        Gs2   v092
	BYTE		N04     Cn3 
	BYTE	W06
	BYTE		        Cn3   v048
	BYTE	W06
	BYTE		        Gs2   v088
	BYTE		N04     Cn3   v092
	BYTE	W06
	BYTE		        Cn3   v048
	BYTE	W06
	BYTE		        Fn2   v092
	BYTE		N04     As2   v104
	BYTE	W06
	BYTE		        As2   v048
	BYTE	W06
	BYTE		        Fn2   v084
	BYTE		N04     As2   v104
	BYTE	W06
	BYTE		        As2   v048
	BYTE	W06
	BYTE		        Fn2   v084
	BYTE		N04     As2   v092
	BYTE	W06
	BYTE		        As2   v048
	BYTE	W06
	BYTE		        Fn2   v088
	BYTE		N04     As2   v100
	BYTE	W06
	BYTE		        As2   v048
	BYTE	W06
	BYTE		        Fn2   v084
	BYTE		N04     As2   v100
	BYTE	W06
	BYTE		        As2   v048
	BYTE	W06
	BYTE		        Fn2   v084
	BYTE		N04     As2   v100
	BYTE	W06
	BYTE		        As2   v048
	BYTE	W06
// 031   ----------------------------------------
	BYTE		        Fn2   v084
	BYTE		N04     As2   v100
	BYTE	W06
	BYTE		        As2   v048
	BYTE	W06
	BYTE		        Fn2   v080
	BYTE		N04     As2   v100
	BYTE	W06
	BYTE		        As2   v048
	BYTE	W06
	BYTE		        Gs2   v100
	BYTE	W06
	BYTE		        Gs2   v048
	BYTE	W06
	BYTE		        Gs2   v100
	BYTE	W06
	BYTE		        Gs2   v048
	BYTE	W06
	BYTE		        Gs2   v100
	BYTE	W06
	BYTE		        Gs2   v048
	BYTE	W06
	BYTE		        Gs2   v100
	BYTE	W06
	BYTE		        Gs2   v048
	BYTE	W06
	BYTE		        Gs2   v104
	BYTE	W06
	BYTE		        Gs2   v048
	BYTE	W06
	BYTE		        Gs2   v100
	BYTE	W06
	BYTE		        Gs2   v048
	BYTE	W06
// 032   ----------------------------------------
	BYTE	W24
	BYTE		N18     Gs3   v116
	BYTE	W18
	BYTE		N06     Gn3 
	BYTE	W09
	BYTE		        Gn3   v056
	BYTE	W09
	BYTE		N36     Ds3   v112
	BYTE	W36
// 033   ----------------------------------------
	BYTE		N06     Ds3   v056
	BYTE	W12
	BYTE		N03     Ds3   v112
	BYTE	W06
	BYTE		        Fn3 
	BYTE	W06
	BYTE		N18     Fs3   v116
	BYTE	W18
	BYTE		N06     Fn3 
	BYTE	W09
	BYTE		        Fn3   v056
	BYTE	W09
	BYTE		N36     Cs3   v112
	BYTE	W36
// 034   ----------------------------------------
	BYTE		N06     Cs3   v056
	BYTE	W12
	BYTE		N03     Cs3   v112
	BYTE	W06
	BYTE		        Ds3 
	BYTE	W06
	BYTE		N18     En3   v116
	BYTE	W18
	BYTE		N06     Ds3 
	BYTE	W09
	BYTE		        Ds3   v056
	BYTE	W09
	BYTE		N36     Bn2   v112
	BYTE	W36
// 035   ----------------------------------------
	BYTE	W03
	BYTE		N06     Bn2   v056
	BYTE	W09
	BYTE		N03     Cs3   v112
	BYTE	W06
	BYTE		        Ds3 
	BYTE	W06
	BYTE		N18     Fs3   v116
	BYTE	W18
	BYTE		N06     Fs3   v056
	BYTE	W06
	BYTE		N18     Fn3   v116
	BYTE	W18
	BYTE		N06     Fn3   v056
	BYTE	W06
	BYTE		N18     Ds3   v116
	BYTE	W18
	BYTE		N06     Ds3   v056
	BYTE	W06
// 036   ----------------------------------------
	BYTE		N18     Cs3   v116
	BYTE	W18
	BYTE		N06     Cs3   v056
	BYTE	W18
	BYTE		        Fn3   v100
	BYTE		N06     As3   v104
	BYTE	W06
	BYTE		        Ds3   v100
	BYTE		N06     Gs3   v104
	BYTE	W06
	BYTE		N60     Fn3 
	BYTE		N60     As3   v108
	BYTE	W48
// 037   ----------------------------------------
	BYTE	W12
	BYTE		N12     Fn3   v088
	BYTE	W24
	BYTE		N06     Gs3   v100
	BYTE		N06     Cn4   v104
	BYTE	W06
	BYTE		        Gn3   v100
	BYTE		N06     As3   v104
	BYTE	W06
	BYTE		N66     Gs3 
	BYTE		N60     Cn4   v108
	BYTE	W48
// 038   ----------------------------------------
	BYTE	W18
	BYTE		N06     Gs3   v072
	BYTE	W18
	BYTE		        As3   v100
	BYTE		N06     Dn4   v104
	BYTE	W06
	BYTE		        Gs3   v100
	BYTE		N06     Cn4   v104
	BYTE	W06
	BYTE		N66     As3   v096
	BYTE		N60     Dn4   v108
	BYTE	W48
// 039   ----------------------------------------
	BYTE	W18
	BYTE		N06     As3   v072
	BYTE	W18
	BYTE		        Cn4   v100
	BYTE		N06     Ds4   v104
	BYTE	W06
	BYTE		        As3   v100
	BYTE		N06     Dn4   v104
	BYTE	W06
	BYTE		N66     Cn4   v096
	BYTE		N60     Ds4   v108
	BYTE	W48
// 040   ----------------------------------------
	BYTE	W18
	BYTE		N06     Cn4   v072
	BYTE	W18
	BYTE		        Fn3   v100
	BYTE		N06     As3   v104
	BYTE	W06
	BYTE		        Ds3   v100
	BYTE		N06     Gs3   v104
	BYTE	W06
	BYTE		N44     Fn3 
	BYTE		N36     As3   v108
	BYTE	W48
// 041   ----------------------------------------
	BYTE		N17     As2 
	BYTE		N17     Fn3 
	BYTE	W18
	BYTE		N06     Fn3   v072
	BYTE	W18
	BYTE		        As3   v100
	BYTE		N06     Dn4   v104
	BYTE	W06
	BYTE		        Gs3   v100
	BYTE		N06     Cn4   v104
	BYTE	W06
	BYTE		N44     As3 
	BYTE		N36     Dn4   v108
	BYTE	W48
// 042   ----------------------------------------
	BYTE		N17     Fn3 
	BYTE		N17     As3 
	BYTE	W18
	BYTE		N06     As3   v072
	BYTE	W18
	BYTE		        Cn4   v100
	BYTE		N06     Ds4   v104
	BYTE	W06
	BYTE		        As3   v100
	BYTE		N06     Dn4   v104
	BYTE	W06
	BYTE		N42     Cn4   v096
	BYTE		N36     Ds4   v108
	BYTE	W42
	BYTE		N06     Cn4   v072
	BYTE	W06
// 043   ----------------------------------------
	BYTE		N12     As3   v100
	BYTE		N12     Dn4   v108
	BYTE	W12
	BYTE		        Cn4   v100
	BYTE		N12     Ds4   v108
	BYTE	W12
	BYTE		N06     Ds4   v072
	BYTE	W12
	BYTE		        Dn4   v100
	BYTE		N06     Fn4   v104
	BYTE	W06
	BYTE		        Cn4   v100
	BYTE		N06     Ds4   v104
	BYTE	W06
	BYTE		N66     Dn4   v096
	BYTE		N60     Fn4   v108
	BYTE	W48
// 044   ----------------------------------------
	BYTE	W18
	BYTE		N06     Dn4   v072
	BYTE	W78
// 045   ----------------------------------------
	BYTE	W96
// 046   ----------------------------------------
	BYTE	W96
// 047   ----------------------------------------
	BYTE	W96
// 048   ----------------------------------------
	BYTE	W48
	BYTE		N18     Gn2   v116
	BYTE	W18
	BYTE		N06     Gn2   v084
	BYTE	W06
	BYTE		N18     An2   v116
	BYTE	W18
	BYTE		N06     An2   v084
	BYTE	W06
// 049   ----------------------------------------
	BYTE		N18     As2   v116
	BYTE	W18
	BYTE		N06     As2   v084
	BYTE	W06
	BYTE		N18     Cn3   v116
	BYTE	W18
	BYTE		N06     Cn3   v084
	BYTE	W06
	BYTE		N18     As2   v116
	BYTE	W18
	BYTE		N06     As2   v084
	BYTE	W06
	BYTE		N18     Dn3   v116
	BYTE	W18
	BYTE		N06     Dn3   v084
	BYTE	W06
// 050   ----------------------------------------
	BYTE		N09     Cn3   v112
	BYTE	W12
	BYTE		        As2 
	BYTE	W60
	BYTE		N48     Cn3 
	BYTE	W24
// 051   ----------------------------------------
	BYTE	W24
	BYTE		N42     Dn3 
	BYTE	W72
// 052   ----------------------------------------
	BYTE	W24
	BYTE	GoTo
	 POIN2	DistantYear_8_B1
DistantYear_8_B2:
	BYTE	FINE

//**************** Track 9 (Midi-Chn.9) ****************//

DistantYear_9:
	BYTE	KEYSH   DistantYear_key+0
// 000   ----------------------------------------
	BYTE		VOICE   70
	BYTE		VOL     63*DistantYear_mvl/mxv
	BYTE		PAN     c_v+16
	BYTE	W24
DistantYear_9_B1:
	BYTE	W72
// 001   ----------------------------------------
	BYTE	W96
// 002   ----------------------------------------
	BYTE	W96
// 003   ----------------------------------------
	BYTE	W96
// 004   ----------------------------------------
	BYTE	W96
// 005   ----------------------------------------
	BYTE	W96
// 006   ----------------------------------------
	BYTE	W96
// 007   ----------------------------------------
	BYTE	W96
// 008   ----------------------------------------
	BYTE	W24
	BYTE		N48     As2   v112
	BYTE	W60
	BYTE		N12     Fn2 
	BYTE	W12
// 009   ----------------------------------------
	BYTE		        As2 
	BYTE	W12
	BYTE		        Cn3 
	BYTE	W12
	BYTE		N24     An2 
	BYTE	W24
	BYTE		N12     Fn2 
	BYTE	W12
	BYTE		N54     Cn2 
	BYTE	W36
// 010   ----------------------------------------
	BYTE	W24
	BYTE		N42     As2 
	BYTE	W48
	BYTE		N24     Fn2 
	BYTE	W24
// 011   ----------------------------------------
	BYTE		N12     As2 
	BYTE	W12
	BYTE		        Cn3 
	BYTE	W12
	BYTE		N24     An2 
	BYTE	W24
	BYTE		N12     As2 
	BYTE	W12
	BYTE		N30     Cn3 
	BYTE	W36
// 012   ----------------------------------------
	BYTE		N24     Fn3   v096
	BYTE	W24
	BYTE		N48     Ds3   v112
	BYTE	W48
	BYTE		        As2 
	BYTE	W24
// 013   ----------------------------------------
	BYTE	W24
	BYTE		N42     Dn3 
	BYTE	W48
	BYTE		N21     As2 
	BYTE	W24
// 014   ----------------------------------------
	BYTE		N06     Gn2 
	BYTE	W06
	BYTE		        An2 
	BYTE	W06
	BYTE		        As2 
	BYTE	W06
	BYTE		        Cn3 
	BYTE	W06
	BYTE		N56     Cs3 
	BYTE	W60
	BYTE		N12     Gs2 
	BYTE	W12
// 015   ----------------------------------------
	BYTE		N21     Cs3 
	BYTE	W24
	BYTE		N48     Ds3 
	BYTE	W48
	BYTE		N18     As2 
	BYTE	W24
// 016   ----------------------------------------
	BYTE	W96
// 017   ----------------------------------------
	BYTE	W96
// 018   ----------------------------------------
	BYTE	W96
// 019   ----------------------------------------
	BYTE	W96
// 020   ----------------------------------------
	BYTE	W24
	BYTE		N23     Fn2   v124
	BYTE	W24
	BYTE		        Cn3   v116
	BYTE	W24
	BYTE		        As2   v124
	BYTE	W24
// 021   ----------------------------------------
	BYTE		        Gs2   v120
	BYTE	W24
	BYTE		N44     Ds3   v116
	BYTE	W48
	BYTE		N23     Cn3 
	BYTE	W24
// 022   ----------------------------------------
	BYTE		        Gs3   v104
	BYTE	W24
	BYTE		N88     Gn3   v108
	BYTE	W72
// 023   ----------------------------------------
	BYTE	W18
	BYTE		N06     Gn3   v072
	BYTE	W06
	BYTE		N90     En3   v116
	BYTE	W72
// 024   ----------------------------------------
	BYTE	W18
	BYTE		N06     En3   v072
	BYTE	W78
// 025   ----------------------------------------
	BYTE	W96
// 026   ----------------------------------------
	BYTE	W96
// 027   ----------------------------------------
	BYTE	W96
// 028   ----------------------------------------
	BYTE	W96
// 029   ----------------------------------------
	BYTE	W96
// 030   ----------------------------------------
	BYTE	W96
// 031   ----------------------------------------
	BYTE	W96
// 032   ----------------------------------------
	BYTE	W96
// 033   ----------------------------------------
	BYTE	W96
// 034   ----------------------------------------
	BYTE	W96
// 035   ----------------------------------------
	BYTE	W96
// 036   ----------------------------------------
	BYTE	W96
// 037   ----------------------------------------
	BYTE	W96
// 038   ----------------------------------------
	BYTE	W96
// 039   ----------------------------------------
	BYTE	W96
// 040   ----------------------------------------
	BYTE	W96
// 041   ----------------------------------------
	BYTE	W96
// 042   ----------------------------------------
	BYTE	W96
// 043   ----------------------------------------
	BYTE	W96
// 044   ----------------------------------------
	BYTE	W96
// 045   ----------------------------------------
	BYTE	W96
// 046   ----------------------------------------
	BYTE	W96
// 047   ----------------------------------------
	BYTE	W96
// 048   ----------------------------------------
	BYTE	W96
// 049   ----------------------------------------
	BYTE	W96
// 050   ----------------------------------------
	BYTE	W96
// 051   ----------------------------------------
	BYTE	W96
// 052   ----------------------------------------
	BYTE	W24
	BYTE	GoTo
	 POIN2	DistantYear_9_B1
DistantYear_9_B2:
	BYTE	FINE

//**************** Track 10 (Midi-Chn.11) ****************//

DistantYear_10:
	BYTE	KEYSH   DistantYear_key+0
// 000   ----------------------------------------
	BYTE		VOICE   48
	BYTE		VOL     80*DistantYear_mvl/mxv
	BYTE	W24
DistantYear_10_B1:
	BYTE	W72
// 001   ----------------------------------------
	BYTE	W96
// 002   ----------------------------------------
	BYTE	W96
// 003   ----------------------------------------
	BYTE	W96
// 004   ----------------------------------------
	BYTE	W96
// 005   ----------------------------------------
	BYTE	W96
// 006   ----------------------------------------
	BYTE	W96
// 007   ----------------------------------------
	BYTE	W96
// 008   ----------------------------------------
	BYTE	W96
// 009   ----------------------------------------
	BYTE	W96
// 010   ----------------------------------------
	BYTE	W96
// 011   ----------------------------------------
	BYTE	W96
// 012   ----------------------------------------
	BYTE	W96
// 013   ----------------------------------------
	BYTE	W96
// 014   ----------------------------------------
	BYTE	W96
// 015   ----------------------------------------
	BYTE	W96
// 016   ----------------------------------------
	BYTE	W96
// 017   ----------------------------------------
	BYTE	W96
// 018   ----------------------------------------
	BYTE	W96
// 019   ----------------------------------------
	BYTE	W96
// 020   ----------------------------------------
	BYTE	W96
// 021   ----------------------------------------
	BYTE	W96
// 022   ----------------------------------------
	BYTE	W96
// 023   ----------------------------------------
	BYTE	W96
// 024   ----------------------------------------
	BYTE	W96
// 025   ----------------------------------------
	BYTE	W96
// 026   ----------------------------------------
	BYTE	W96
// 027   ----------------------------------------
	BYTE	W96
// 028   ----------------------------------------
	BYTE	W96
// 029   ----------------------------------------
	BYTE	W96
// 030   ----------------------------------------
	BYTE	W24
	BYTE		N36     Dn3   v108
	BYTE	W36
	BYTE		N12     Ds3 
	BYTE	W12
	BYTE		N36     Fn3 
	BYTE	W24
// 031   ----------------------------------------
	BYTE	W12
	BYTE		N12     Gn3 
	BYTE	W12
	BYTE		N30     Gs3 
	BYTE	W30
	BYTE		N06     Gn3 
	BYTE	W06
	BYTE		        Gs3 
	BYTE	W06
	BYTE		        As3   v112
	BYTE	W06
	BYTE		N44     Cn4 
	BYTE	W24
// 032   ----------------------------------------
	BYTE	W24
	BYTE		N17     Fn4   v104
	BYTE	W18
	BYTE		N06     Ds4 
	BYTE	W18
	BYTE		N36     As3   v092
	BYTE	W36
// 033   ----------------------------------------
	BYTE	W24
	BYTE		N17     Ds4   v100
	BYTE	W18
	BYTE		N06     Cs4 
	BYTE	W18
	BYTE		N36     Gs3   v092
	BYTE	W36
// 034   ----------------------------------------
	BYTE	W12
	BYTE		N05     Cs3   v100
	BYTE	W06
	BYTE		        Ds3 
	BYTE	W06
	BYTE		N17     Cs4 
	BYTE	W18
	BYTE		N06     Bn3 
	BYTE	W18
	BYTE		N36     Fs3   v080
	BYTE	W36
// 035   ----------------------------------------
	BYTE	W12
	BYTE		N05     Fs3   v088
	BYTE	W06
	BYTE		        Gs3   v100
	BYTE	W06
	BYTE		N21     As3   v088
	BYTE	W24
	BYTE		        Gs3 
	BYTE	W24
	BYTE		        Fs3 
	BYTE	W24
// 036   ----------------------------------------
	BYTE		        Fn3 
	BYTE	W24
	BYTE		N44     Fn3   v127
	BYTE	W48
	BYTE		N23     Ds3 
	BYTE	W24
// 037   ----------------------------------------
	BYTE		        Dn3 
	BYTE	W24
	BYTE		N64     Ds3 
	BYTE	W72
// 038   ----------------------------------------
	BYTE		N11     Dn3 
	BYTE	W12
	BYTE		        Ds3 
	BYTE	W12
	BYTE		N32     Fn3 
	BYTE	W36
	BYTE		TIE     As2 
	BYTE	W36
// 039   ----------------------------------------
	BYTE	W64
	BYTE	W01
	BYTE		EOT   
	BYTE	W07
	BYTE		N11     Gs3 
	BYTE	W12
	BYTE		        Gn3 
	BYTE	W12
// 040   ----------------------------------------
	BYTE		        Fn3 
	BYTE	W12
	BYTE		        Ds3 
	BYTE	W12
	BYTE		N44     Fn3 
	BYTE	W48
	BYTE		N23     Ds3 
	BYTE	W24
// 041   ----------------------------------------
	BYTE		        Dn3 
	BYTE	W24
	BYTE		N64   
	BYTE	W72
// 042   ----------------------------------------
	BYTE		N11     Cn3 
	BYTE	W12
	BYTE		        Dn3 
	BYTE	W12
	BYTE		N32     Ds3 
	BYTE	W36
	BYTE		N76     As2 
	BYTE	W36
// 043   ----------------------------------------
	BYTE	W48
	BYTE		N23     Dn3 
	BYTE	W24
	BYTE		        Ds3 
	BYTE	W24
// 044   ----------------------------------------
	BYTE		N24     Fn3 
	BYTE	W24
	BYTE		N09     Fn3   v072
	BYTE	W12
	BYTE		N12     Gn2   v104
	BYTE		N11     Dn3 
	BYTE	W12
	BYTE		N06     Fn2 
	BYTE		N06     Cn3 
	BYTE	W36
	BYTE		N12     As2 
	BYTE		N11     Dn3 
	BYTE	W12
// 045   ----------------------------------------
	BYTE		N06     Gn2 
	BYTE		N06     Cn3 
	BYTE	W36
	BYTE		N12     An2 
	BYTE		N11     Cn3 
	BYTE	W12
	BYTE		N06     Dn2 
	BYTE		N06     An2 
	BYTE	W36
	BYTE		N11     Gn2 
	BYTE	W12
// 046   ----------------------------------------
	BYTE		N06     Gn3   v084
	BYTE	W09
	BYTE		N09     Gn3   v056
	BYTE	W24
	BYTE	W03
	BYTE		N12     Gn2   v104
	BYTE		N11     Dn3 
	BYTE	W12
	BYTE		N06     Fn2 
	BYTE		N06     Cn3 
	BYTE	W36
	BYTE		N12     As2 
	BYTE		N11     Dn3 
	BYTE	W12
// 047   ----------------------------------------
	BYTE		N06     Gn2 
	BYTE		N06     Cn3 
	BYTE	W36
	BYTE		N12     An2 
	BYTE		N11     Cn3 
	BYTE	W12
	BYTE		N06     As2 
	BYTE		N06     Dn3 
	BYTE	W36
	BYTE		N11     Gn2 
	BYTE	W12
// 048   ----------------------------------------
	BYTE		N06     Gn3   v084
	BYTE	W09
	BYTE		N09     Gn3   v056
	BYTE	W84
	BYTE	W03
// 049   ----------------------------------------
	BYTE	W96
// 050   ----------------------------------------
	BYTE	W96
// 051   ----------------------------------------
	BYTE	W96
// 052   ----------------------------------------
	BYTE	W24
	BYTE	GoTo
	 POIN2	DistantYear_10_B1
DistantYear_10_B2:
	BYTE	FINE

//**************** Track 11 (Midi-Chn.12) ****************//

DistantYear_11:
	BYTE	KEYSH   DistantYear_key+0
// 000   ----------------------------------------
	BYTE		VOICE   65
	BYTE		PAN     c_v-14
	BYTE		VOL     78*DistantYear_mvl/mxv
	BYTE	W24
DistantYear_11_B1:
	BYTE	W72
// 001   ----------------------------------------
	BYTE	W96
// 002   ----------------------------------------
	BYTE	W96
// 003   ----------------------------------------
	BYTE	W96
// 004   ----------------------------------------
	BYTE	W96
// 005   ----------------------------------------
	BYTE	W96
// 006   ----------------------------------------
	BYTE	W96
// 007   ----------------------------------------
	BYTE	W96
// 008   ----------------------------------------
	BYTE	W96
// 009   ----------------------------------------
	BYTE	W96
// 010   ----------------------------------------
	BYTE	W96
// 011   ----------------------------------------
	BYTE	W96
// 012   ----------------------------------------
	BYTE	W96
// 013   ----------------------------------------
	BYTE	W96
// 014   ----------------------------------------
	BYTE	W96
// 015   ----------------------------------------
	BYTE	W96
// 016   ----------------------------------------
	BYTE	W96
// 017   ----------------------------------------
	BYTE	W96
// 018   ----------------------------------------
	BYTE	W96
// 019   ----------------------------------------
	BYTE	W96
// 020   ----------------------------------------
	BYTE	W96
// 021   ----------------------------------------
	BYTE	W96
// 022   ----------------------------------------
	BYTE	W96
// 023   ----------------------------------------
	BYTE	W96
// 024   ----------------------------------------
	BYTE	W96
// 025   ----------------------------------------
	BYTE	W96
// 026   ----------------------------------------
	BYTE	W96
// 027   ----------------------------------------
	BYTE	W96
// 028   ----------------------------------------
	BYTE	W96
// 029   ----------------------------------------
	BYTE	W96
// 030   ----------------------------------------
	BYTE	W96
// 031   ----------------------------------------
	BYTE	W96
// 032   ----------------------------------------
	BYTE	W60
	BYTE		N36     Gs3   v104
	BYTE	W36
// 033   ----------------------------------------
	BYTE	W03
	BYTE		N06     Gs3   v064
	BYTE	W21
	BYTE		        Ds3   v104
	BYTE	W18
	BYTE		N06   
	BYTE	W18
	BYTE		N36     Fs3 
	BYTE	W36
// 034   ----------------------------------------
	BYTE	W03
	BYTE		N06     Fs3   v064
	BYTE	W21
	BYTE		        Bn2   v104
	BYTE	W18
	BYTE		N06   
	BYTE	W18
	BYTE		N36     En3 
	BYTE	W36
// 035   ----------------------------------------
	BYTE		N06     En3   v064
	BYTE	W24
	BYTE		N21     As3   v104
	BYTE	W24
	BYTE		        Gs3 
	BYTE	W24
	BYTE		        Fs3 
	BYTE	W24
// 036   ----------------------------------------
	BYTE		        Gs3 
	BYTE	W24
	BYTE		N44     As2   v096
	BYTE	W48
	BYTE		N06   
	BYTE	W12
	BYTE		N06   
	BYTE	W06
	BYTE		        Gs2 
	BYTE	W06
// 037   ----------------------------------------
	BYTE		N21     As2 
	BYTE	W24
	BYTE		N44   
	BYTE	W48
	BYTE		N06   
	BYTE	W12
	BYTE		        Cn3 
	BYTE	W06
	BYTE		        As2 
	BYTE	W06
// 038   ----------------------------------------
	BYTE		N21     Cn3 
	BYTE	W24
	BYTE		N44     As2 
	BYTE	W48
	BYTE		N06   
	BYTE	W12
	BYTE		        Dn3 
	BYTE	W06
	BYTE		        Cn3 
	BYTE	W06
// 039   ----------------------------------------
	BYTE		N21     Dn3 
	BYTE	W24
	BYTE		N44     As2 
	BYTE	W48
	BYTE		N06   
	BYTE	W12
	BYTE		        Ds3 
	BYTE	W06
	BYTE		        Dn3 
	BYTE	W06
// 040   ----------------------------------------
	BYTE		N21     Ds3 
	BYTE	W24
	BYTE		N44     As2 
	BYTE	W48
	BYTE		N06   
	BYTE	W12
	BYTE		N06   
	BYTE	W06
	BYTE		        Gs2 
	BYTE	W06
// 041   ----------------------------------------
	BYTE		N21     As2 
	BYTE	W24
	BYTE		N44   
	BYTE	W48
	BYTE		N06   
	BYTE	W12
	BYTE		        Dn3 
	BYTE	W06
	BYTE		        Cn3 
	BYTE	W06
// 042   ----------------------------------------
	BYTE		N21     Dn3 
	BYTE	W24
	BYTE		N44     Cn3 
	BYTE	W48
	BYTE		N06   
	BYTE	W12
	BYTE		        Ds3 
	BYTE	W06
	BYTE		        Dn3 
	BYTE	W06
// 043   ----------------------------------------
	BYTE		N21     Ds3 
	BYTE	W24
	BYTE		N06     As2 
	BYTE	W24
	BYTE		N06   
	BYTE	W24
	BYTE		N06   
	BYTE	W12
	BYTE		        Fn3 
	BYTE	W06
	BYTE		        Ds3 
	BYTE	W06
// 044   ----------------------------------------
	BYTE		N21     Fn3 
	BYTE	W96
// 045   ----------------------------------------
	BYTE	W96
// 046   ----------------------------------------
	BYTE	W96
// 047   ----------------------------------------
	BYTE	W96
// 048   ----------------------------------------
	BYTE	W96
// 049   ----------------------------------------
	BYTE	W96
// 050   ----------------------------------------
	BYTE	W96
// 051   ----------------------------------------
	BYTE	W96
// 052   ----------------------------------------
	BYTE	W24
	BYTE	GoTo
	 POIN2	DistantYear_11_B1
DistantYear_11_B2:
	BYTE	FINE

//**************** Track 12 (Midi-Chn.13) ****************//

DistantYear_12:
	BYTE	KEYSH   DistantYear_key+0
// 000   ----------------------------------------
	BYTE		VOICE   57
	BYTE		PAN     c_v-13
	BYTE		VOL     76*DistantYear_mvl/mxv
	BYTE	W24
DistantYear_12_B1:
	BYTE	W72
// 001   ----------------------------------------
	BYTE	W96
// 002   ----------------------------------------
	BYTE	W96
// 003   ----------------------------------------
	BYTE	W96
// 004   ----------------------------------------
	BYTE	W96
// 005   ----------------------------------------
	BYTE	W96
// 006   ----------------------------------------
	BYTE	W96
// 007   ----------------------------------------
	BYTE	W96
// 008   ----------------------------------------
	BYTE	W96
// 009   ----------------------------------------
	BYTE	W96
// 010   ----------------------------------------
	BYTE	W96
// 011   ----------------------------------------
	BYTE	W96
// 012   ----------------------------------------
	BYTE	W96
// 013   ----------------------------------------
	BYTE	W96
// 014   ----------------------------------------
	BYTE	W96
// 015   ----------------------------------------
	BYTE	W96
// 016   ----------------------------------------
	BYTE	W96
// 017   ----------------------------------------
	BYTE	W96
// 018   ----------------------------------------
	BYTE	W96
// 019   ----------------------------------------
	BYTE	W96
// 020   ----------------------------------------
	BYTE	W96
// 021   ----------------------------------------
	BYTE	W96
// 022   ----------------------------------------
	BYTE	W96
// 023   ----------------------------------------
	BYTE	W96
// 024   ----------------------------------------
	BYTE	W12
	BYTE		N06     Gn3   v104
	BYTE	W12
	BYTE		N03     Cn3   v108
	BYTE		N03     Fn3 
	BYTE	W06
	BYTE		        Cn3 
	BYTE		N03     Fn3 
	BYTE	W06
	BYTE		        Cn3 
	BYTE		N03     Fn3 
	BYTE	W06
	BYTE		        Cn3   v072
	BYTE		N03     Fn3 
	BYTE	W18
	BYTE		N12     Dn3   v104
	BYTE	W12
	BYTE		N24     Cn3   v100
	BYTE	W24
// 025   ----------------------------------------
	BYTE	W12
	BYTE		N09     Bn2 
	BYTE	W12
	BYTE		N24     Cn3   v104
	BYTE		N03     Ds3   v108
	BYTE		N03     Gn3 
	BYTE	W06
	BYTE		        Ds3 
	BYTE		N03     Gn3 
	BYTE	W06
	BYTE		        Ds3 
	BYTE		N03     Gn3 
	BYTE	W06
	BYTE		        Ds3   v072
	BYTE		N03     Gn3 
	BYTE	W06
	BYTE		N66     Gn2   v100
	BYTE	W48
// 026   ----------------------------------------
	BYTE		N24     Gn3   v108
	BYTE	W24
	BYTE		N03     Cn3 
	BYTE		N03     Fn3 
	BYTE	W06
	BYTE		        Cn3 
	BYTE		N03     Fn3 
	BYTE	W06
	BYTE		        Cn3 
	BYTE		N03     Fn3 
	BYTE	W06
	BYTE		        Cn3   v072
	BYTE		N03     Fn3 
	BYTE	W18
	BYTE		N12     Dn3   v104
	BYTE	W12
	BYTE		N24     Cn3   v100
	BYTE	W24
// 027   ----------------------------------------
	BYTE		N06     Fn2   v104
	BYTE	W06
	BYTE		        An2 
	BYTE	W06
	BYTE		N09     Bn2   v100
	BYTE		N06     Cn3   v104
	BYTE	W06
	BYTE		        Fn3 
	BYTE	W06
	BYTE		N24     Cn3 
	BYTE		N03     Ds3 
	BYTE		N03     Gn3 
	BYTE	W06
	BYTE		        Ds3 
	BYTE		N03     Gn3 
	BYTE	W06
	BYTE		        Ds3 
	BYTE		N03     Gn3 
	BYTE	W06
	BYTE		        Ds3   v072
	BYTE		N03     Gn3 
	BYTE	W06
	BYTE		N42     Gn2   v100
	BYTE	W48
// 028   ----------------------------------------
	BYTE		N09     Gn2   v108
	BYTE	W12
	BYTE		        An2 
	BYTE	W12
	BYTE		N03     Fn2 
	BYTE		N03     As2 
	BYTE	W06
	BYTE		        Fn2 
	BYTE		N03     As2 
	BYTE	W06
	BYTE		        Fn2 
	BYTE		N03     As2 
	BYTE	W06
	BYTE		        As2   v072
	BYTE	W18
	BYTE		N12     Fn3   v104
	BYTE	W12
	BYTE		N24     Ds3   v100
	BYTE	W24
// 029   ----------------------------------------
	BYTE	W12
	BYTE		N12     Dn3 
	BYTE	W12
	BYTE		N03     Gs2   v108
	BYTE		N03     Cn3 
	BYTE		N24     Ds3   v104
	BYTE	W06
	BYTE		N03     Gs2   v108
	BYTE		N03     Cn3 
	BYTE	W06
	BYTE		        Gs2 
	BYTE		N03     Cn3 
	BYTE	W06
	BYTE		        Gs2   v072
	BYTE		N03     Cn3 
	BYTE	W06
	BYTE		N66     Gs2   v100
	BYTE	W48
// 030   ----------------------------------------
	BYTE		N24     Cn3   v108
	BYTE	W24
	BYTE		N03     Fn2 
	BYTE		N03     As2 
	BYTE	W06
	BYTE		        Fn2 
	BYTE		N03     As2 
	BYTE	W06
	BYTE		        Fn2 
	BYTE		N03     As2 
	BYTE	W06
	BYTE		        Fn2   v072
	BYTE		N03     As2 
	BYTE	W18
	BYTE		N12     Fn3   v104
	BYTE	W12
	BYTE		N24     Ds3   v100
	BYTE	W24
// 031   ----------------------------------------
	BYTE		N06     As1   v104
	BYTE	W06
	BYTE		        Dn2 
	BYTE	W06
	BYTE		        Fn2 
	BYTE		N12     Dn3   v100
	BYTE	W06
	BYTE		N06     As2   v104
	BYTE	W06
	BYTE		N03     Gs2   v108
	BYTE		N03     Cn3   v104
	BYTE		N24     Ds3   v108
	BYTE	W06
	BYTE		N03     Gs2 
	BYTE		N03     Cn3   v104
	BYTE	W06
	BYTE		        Gs2   v108
	BYTE		N03     Cn3   v104
	BYTE	W06
	BYTE		        Gs2   v072
	BYTE		N03     Cn3 
	BYTE	W06
	BYTE		N66     Gs2   v104
	BYTE	W48
// 032   ----------------------------------------
	BYTE		N21     Fn2   v112
	BYTE	W96
// 033   ----------------------------------------
	BYTE	W96
// 034   ----------------------------------------
	BYTE	W96
// 035   ----------------------------------------
	BYTE	W96
// 036   ----------------------------------------
	BYTE	W96
// 037   ----------------------------------------
	BYTE	W96
// 038   ----------------------------------------
	BYTE	W96
// 039   ----------------------------------------
	BYTE	W96
// 040   ----------------------------------------
	BYTE	W96
// 041   ----------------------------------------
	BYTE	W96
// 042   ----------------------------------------
	BYTE	W96
// 043   ----------------------------------------
	BYTE	W96
// 044   ----------------------------------------
	BYTE	W36
	BYTE		N12     Gn2   v104
	BYTE	W12
	BYTE		N06     Fn2 
	BYTE	W06
	BYTE		        Fn2   v072
	BYTE	W30
	BYTE		N12     As2   v104
	BYTE	W12
// 045   ----------------------------------------
	BYTE		N06     Gn2 
	BYTE	W06
	BYTE		        Gn2   v072
	BYTE	W30
	BYTE		N12     An2   v104
	BYTE	W12
	BYTE		N06     Dn2 
	BYTE	W06
	BYTE		        Dn2   v072
	BYTE	W30
	BYTE		N12     Gn2   v104
	BYTE	W12
// 046   ----------------------------------------
	BYTE		N06     Gn3   v084
	BYTE	W12
	BYTE		        Gn3   v032
	BYTE	W24
	BYTE		N12     Gn2   v104
	BYTE	W12
	BYTE		N06     Fn2 
	BYTE	W06
	BYTE		        Fn2   v072
	BYTE	W30
	BYTE		N12     As2   v104
	BYTE	W12
// 047   ----------------------------------------
	BYTE		N06     Gn2 
	BYTE	W06
	BYTE		        Gn2   v072
	BYTE	W30
	BYTE		N12     An2   v104
	BYTE	W12
	BYTE		N06     As2 
	BYTE	W06
	BYTE		        As2   v072
	BYTE	W30
	BYTE		N12     Gn2   v104
	BYTE	W12
// 048   ----------------------------------------
	BYTE		N06     Gn3   v084
	BYTE	W12
	BYTE		        Gn3   v032
	BYTE	W12
	BYTE		N90     As2   v104
	BYTE		N78     Ds3 
	BYTE	W72
// 049   ----------------------------------------
	BYTE	W12
	BYTE		N06   
	BYTE	W12
	BYTE		N66     Gn2 
	BYTE		N90     Ds3 
	BYTE	W72
// 050   ----------------------------------------
	BYTE		N06     An2 
	BYTE	W12
	BYTE		        As2 
	BYTE	W12
	BYTE		N42     Cn3 
	BYTE		N48     Dn3 
	BYTE	W48
	BYTE		N30     An2 
	BYTE		N24     Cn3 
	BYTE	W24
// 051   ----------------------------------------
	BYTE		        Ds3 
	BYTE	W12
	BYTE		N06     As2 
	BYTE	W12
	BYTE		N48     An2 
	BYTE		N48     Dn3 
	BYTE	W48
	BYTE		N09     Dn3   v072
	BYTE	W12
	BYTE		N06     An2   v104
	BYTE	W12
// 052   ----------------------------------------
	BYTE		        As2 
	BYTE		N06     Dn3 
	BYTE	W12
	BYTE		        Cn3 
	BYTE		N06     Ds3 
	BYTE	W12
	BYTE	GoTo
	 POIN2	DistantYear_12_B1
DistantYear_12_B2:
	BYTE	FINE

//******************************************************//
	ALIGN 4

DistantYear:
	BYTE	12	// NumTrks
	BYTE	0	// NumBlks
	BYTE	DistantYear_pri	// Priority
	BYTE	DistantYear_rev	// Reverb.

	POIN2	DistantYear_grp

	POIN2	DistantYear_1
	POIN2	DistantYear_2
	POIN2	DistantYear_3
	POIN2	DistantYear_4
	POIN2	DistantYear_5
	POIN2	DistantYear_6
	POIN2	DistantYear_7
	POIN2	DistantYear_8
	POIN2	DistantYear_9
	POIN2	DistantYear_10
	POIN2	DistantYear_11
	POIN2	DistantYear_12

	
